<?xml version="1.0" encoding="UTF-8" standalone="no"?>
<svg
   xmlns:dc="http://purl.org/dc/elements/1.1/"
   xmlns:cc="http://creativecommons.org/ns#"
   xmlns:rdf="http://www.w3.org/1999/02/22-rdf-syntax-ns#"
   xmlns:svg="http://www.w3.org/2000/svg"
   xmlns="http://www.w3.org/2000/svg"
   xmlns:sodipodi="http://sodipodi.sourceforge.net/DTD/sodipodi-0.dtd"
   xmlns:inkscape="http://www.inkscape.org/namespaces/inkscape"
   id="Слой_1"
   data-name="Слой 1"
   viewBox="0 0 577.63 532.72"
   version="1.1"
   sodipodi:docname="redmap.svg"
   inkscape:version="0.92.4 (5da689c313, 2019-01-14)">
  <metadata
     id="metadata49">
    <rdf:RDF>
      <cc:Work
         rdf:about="">
        <dc:format>image/svg+xml</dc:format>
        <dc:type
           rdf:resource="http://purl.org/dc/dcmitype/StillImage" />
        <dc:title>карта 2</dc:title>
      </cc:Work>
    </rdf:RDF>
  </metadata>
  <sodipodi:namedview
     pagecolor="#ffffff"
     bordercolor="#666666"
     borderopacity="1"
     objecttolerance="10"
     gridtolerance="10"
     guidetolerance="10"
     inkscape:pageopacity="0"
     inkscape:pageshadow="2"
     inkscape:window-width="1920"
     inkscape:window-height="1018"
     id="namedview47"
     showgrid="false"
     inkscape:zoom="1.255"
     inkscape:cx="293.85754"
     inkscape:cy="263.04557"
     inkscape:window-x="-8"
     inkscape:window-y="-8"
     inkscape:window-maximized="1"
     inkscape:current-layer="g44" />
  <defs
     id="defs4">
    <inkscape:perspective
       sodipodi:type="inkscape:persp3d"
       inkscape:vp_x="0 : 266.36 : 1"
       inkscape:vp_y="0 : 1000 : 0"
       inkscape:vp_z="577.63 : 266.36 : 1"
       inkscape:persp3d-origin="288.815 : 177.57333 : 1"
       id="perspective1617" />
    <style
       id="style2">
      .cls-1 {
        fill: #d35143;
      }
    </style>
  </defs>
  <title
     id="title6">карта 2</title>
  <g
     id="g44">
    <path
       class="cls-1"
       d="M322.53,474.22a5.15,5.15,0,0,1-1.34-.19c-5.53-1.48-10.93-3.69-13-9.78a12.3,12.3,0,0,0-6.86-7.44c-3-1.42-6-2.94-8.9-4.41-2.47-1.24-5-2.53-7.56-3.76a7.31,7.31,0,0,0-6.95.13,7.5,7.5,0,0,0-3.65,6.11c0,.29,0,.59,0,.88v.6c0,.34,0,.68,0,1,0,2.34,0,5.26-3.91,5.79a7.46,7.46,0,0,1-8.09-5.77c-.81-3.71-1.53-8.09-.65-12.48,1.08-5.34-1.9-8.85-5.28-11.86-.88-.77-1.56-.94-2-.48a35.53,35.53,0,0,1-2.93,2.45,22.43,22.43,0,0,0-4,3.66c-.61.63-1.19,1.28-1.78,1.94-2.16,2.41-4.61,5.15-7.79,5.85l-.53.11-.07-.53c-.27-1.92.53-3.64,2.43-5.26,1.23-1.06,1.33-3.07,1.41-4.85,0-.38,0-.69,0-1a14.3,14.3,0,0,1,.34-3.25l0-.15c1.12-4.25,1.12-4.25-3.29-6.07-5.38-2.23-8.35-7.7-8.16-15a2.28,2.28,0,0,1,0-.26l0-.21a29,29,0,0,0,1.52-4c.21-.77.36-1.6.51-2.4q.14-.78.3-1.56c.25-.63.45-1.14.62-1.55s.34-.87.4-1c2.58-5.4,5.43-6.77,11.32-5.43,2,.44,4,.85,5.95,1.24,2.26.45,4.6.91,6.88,1.45a4.39,4.39,0,0,0,3.62-.33,4.18,4.18,0,0,0,1.33-3.23c.21-3.33.23-6.73.25-10v-.44c0-2.43.28-4.9,3.21-6,.6-.22,1.22-.52,1.81-.8,2.25-1.08,4.79-2.3,7.66.22,3.11,2.74,6.58,3.17,10.59,1.29a31,31,0,0,1,7.68-2.13,4.47,4.47,0,0,1,4.4,1.21,4.54,4.54,0,0,1,.41,4.61,45.28,45.28,0,0,1-2.37,5.14c-.29.56-.58,1.12-.85,1.68a3.77,3.77,0,0,0-.44,3,3.71,3.71,0,0,0,2.38,1.85q3.71,1.31,7.44,2.56a31.49,31.49,0,0,1,12.81,7.94c3.88,4,7.53,4.56,12.2,1.88a43.51,43.51,0,0,1,6.11-2.72,34.91,34.91,0,0,0,7.09-3.33,4.35,4.35,0,0,1,4.08-.66c1.5.59,2.63,2.16,3.18,4.42.63,2.61,1.4,5.06,3.95,6.44a3.42,3.42,0,0,1,1.68,4.07c0,.23-.08.46-.11.69a7,7,0,0,1-.37,1.6c-2.55,6.07-1,10.93,4.78,14.87a7.73,7.73,0,0,1,3.12,5.46h0a85.68,85.68,0,0,1,.25,14.49l-.06,1.68c-.07,1.85-1.37,3.07-2.63,4-2,1.51-4,3-6,4.5-2.85,2.1-5.8,4.27-8.66,6.47-3.42,2.64-6.7,2.54-9.74-.3-1.24-1.16-2.28-1.67-3.16-1.53s-1.59.8-2.34,2.09a4,4,0,0,1-1.17,1.24,12.21,12.21,0,0,0-2.12,2.22C326.21,472.49,324.8,474.22,322.53,474.22Z"
       transform="translate(-184.73 -34.07)"
       id="path8"
       style="fill:none;stroke:#52a4df;stroke-opacity:1" />
    <path
       class="cls-1"
       d="M210.49,566.79c-2,0-3.44-.46-4.34-1.4a5.07,5.07,0,0,1-1.15-3.94,8.63,8.63,0,0,0-1.26-5.1c-1.5-2.4-2.89-4.92-4.23-7.36-3.31-6-6.73-12.22-12-17-1.77-1.58-2.66-3.81-2.7-6.81s0-5.7,0-8.26v-.43c0-.91,0-1.93.57-2.46,3.39-3.06,3.6-6.93,3.81-11a32.84,32.84,0,0,1,.61-5.5,39,39,0,0,0,.75-6.68c.05-.85.1-1.7.17-2.55a4,4,0,0,0-.63-3.19,3,3,0,0,0-.91-.6c-.84-.45-2.13-1.12-1.34-2.86l.05-.11c.91-2,2-4.5,4.78-4.88,3.63-.51,5.16-3,6.28-5.54s2.49-5.72,6.5-6.2c1.32-.16,2.07-1.52,2.67-2.78a8.31,8.31,0,0,1,7.93-5,19.4,19.4,0,0,0,9.07-2.52c2.61-1.33,4.71-1.22,6.79.38a5.88,5.88,0,0,0,2.89,1.21l.46.06v.46a44.06,44.06,0,0,1-1.24,7.53c-.91,4.13-1.86,8.4-.55,11.26,1.53,3.35,5.31,3.3,9.31,3.24a23.68,23.68,0,0,1,5.73.38l.65.17-.35.57c-.5.84-1.08,1.68-1.7,2.56-1.7,2.45-3.46,5-3.42,7.31,0,1.42,1.2,2.19,2.44,3s2.89,1.91,2.76,3.91A5.49,5.49,0,0,1,248,499a3.34,3.34,0,0,0-.55,2.53,5.91,5.91,0,0,0,2,2.83,9.52,9.52,0,0,0,3.3,1.58,11.65,11.65,0,0,1,3.2,1.45c3,2.15,2.55,6.36,2.25,9.43l0,.35c-.16,1.66-.48,3.29-.79,4.87-1.15,5.8-2.05,10.37,5,12.92a54.65,54.65,0,0,0,17.19,2.86c.86,0,1.9,0,3-.06,4.31-.18,9.68-.4,12.09,2.81l.43.43-.54.33c-3.09,1.88-5.81,4.93-8.54,9.6a11.62,11.62,0,0,1-10.28,6.15c-.94,0-2,0-2.28.63-1.72,3.77-4.66,2.78-7,2l-.27-.09c-6.49-2.16-11.56-1.06-16,3.46-2.38,2.44-5.82,3.73-10,3.73h-9.52c-6.59,0-13.4,0-20.1,0Z"
       transform="translate(-184.73 -34.07)"
       id="path10"
       style="fill:none;stroke:#52a4df;stroke-opacity:1" />
    <path
       class="cls-1"
       d="M296.74,540.19l-.2-.39-.09-.15c-3.06-4.13-9-4-14.19-3.91-1.44,0-2.8,0-4.07,0l-.46,0c-5.61-.25-17.28-.79-19.23-6.53-.8-2.36,0-5.35.76-8.24a25.62,25.62,0,0,0,.94-4.47l0-.35c.21-2.84.51-6.73-1.33-9a9.15,9.15,0,0,0-4-2.36c-2.58-1-5.24-2-4.65-6.12.09-.63.21-1.19.31-1.7.4-2,.58-2.86-1.32-4.5a16.36,16.36,0,0,0-1.62-1.21c-1.8-1.2-2.07-1.83-.38-4.83.49-.87,1-1.71,1.52-2.53a32.41,32.41,0,0,0,2.54-4.56c.15-.36.29-1.12-.3-1.41-2.95-1.45-5.79-1.5-9.47-1.43l-.93.05c-1.47.1-3.31.23-4.44-.71-2.14-1.74-1.47-5.41-1-7.84l.12-.66c.15-.88.34-1.83.54-2.82a47.5,47.5,0,0,0,1.14-8.14V456l.33-.11a3.7,3.7,0,0,0,2.48-2.21,3.57,3.57,0,0,0-.55-3.13c-.34-.51-.65-1-.92-1.51l-.31-.56.61-.17c3.29-.9,5.8-3.59,8.24-6.19l1.18-1.26.17-.11a10.84,10.84,0,0,0,4.48-4,3.29,3.29,0,0,1,2.46-1.72c1.15,0,2,1,2.71,1.84a8.31,8.31,0,0,1,1.46,5.27c0,1,0,2,0,2.94,0,2.47,0,5,.08,7.53.35,7.46,5.18,12.93,11.75,13.32,2,.12,3.24-.12,4-.77s1.08-1.81,1.17-3.78c.05-.89,0-1.8,0-2.67s0-1.72,0-2.58c.1-2.44,1-4.33,2.5-5.31a5.51,5.51,0,0,1,5.18-.17,120.76,120.76,0,0,1,19.67,10.24c1.62,1,2.34,2.76,3,4.6a13.86,13.86,0,0,0,8.33,8.52l.26.11c8,3.28,8,3.28,13.76-3.24,1.34-1.51,2.82-2.92,4.56-3,1.28,0,2.54.65,3.93,2.07,2.19,2.25,4.69,2.33,7.43.25a45.24,45.24,0,0,1,5-3.17l.77-.44c1.66-1,2.73-1.2,3.56-.81s1.33,1.4,1.66,3.36c.1.61.14,1.22.18,1.81s.06,1,.14,1.55c.31,2.15,1.44,3.15,3.54,3.15l5.39,0,2.48,0a3,3,0,0,1,2.3.77,3.26,3.26,0,0,1,.65,2.54c-.4,7.23,2.6,10.72,10,11.68,3,.39,4.84,1.52,6.14,3.77,1.65,2.86,4.42,4.17,7.11,5.27l.12.07a21,21,0,0,1,5.06,6.05l.37.67-.76.07c-.59.05-1.19.14-1.78.23a14.88,14.88,0,0,1-3,.27,9,9,0,0,0-7.51,4.14c-1.22,1.72-1.65,3.11-.23,5.17s1.72,3.59,1.12,4.92-2.34,2.31-4.94,2.62c-3.64.43-8.37-1.66-11.51-5.09-2.47-2.7-3.51-5.7-2.94-8.46a3.07,3.07,0,0,0,0-1.28,5.31,5.31,0,0,1,0-1.44c0-.6.1-1.23-.15-1.5a1.12,1.12,0,0,0-.79-.25,2.21,2.21,0,0,0-1.7.7,3.17,3.17,0,0,0-.75,2.44c.56,6.27-3.65,8.7-7.71,11.05-.53.3-1.06.61-1.57.92-2.3,1.39-4.57.34-6.5-.88-5.86-3.7-9.25-3.13-13.43,2.28A19.72,19.72,0,0,1,323.39,530c-1.28.29-2.57.68-3.82,1.07-1.1.33-2.24.68-3.38,1-2.68.66-4,1.92-4.25,4.24a3.79,3.79,0,0,1-4.93,3.45,17.16,17.16,0,0,0-9.86.37Z"
       transform="translate(-184.73 -34.07)"
       id="path12"
       style="fill:none;stroke:#52a4df;stroke-opacity:1" />
    <path
       class="cls-1"
       d="M437.51,537.71c-4,0-9.19-1.24-11-2.88a76.27,76.27,0,0,1-8.37-9.3c-1.37-1.7-2.78-3.45-4.25-5.1l-1.39-1.57c-3-3.44-6.19-7-9.24-10.53a4.84,4.84,0,0,0-1.43-1.15l-.17-.09-.07-.18a18.72,18.72,0,0,0-2.84-5l-.2-.26.15-.29a1.75,1.75,0,0,0-.13-1.45,6.57,6.57,0,0,0-3.17-3.14c-.51-.26-1-.49-1.57-.72a20.61,20.61,0,0,1-2.17-1.05c-2.73-1.6-4.2-3.33-4.48-5.29s.62-4,2.75-6.24q4.32-4.58,8.62-9.17l4.45-4.73c1-.73,1.95-1.38,2.89-2,1.86-1.26,3.77-2.58,5.59-4a12.27,12.27,0,0,0,5-8.52,25.4,25.4,0,0,0-.34-6.13c-.4-2.91-.78-5.66.52-8.85l.2-.49.48.24a6.36,6.36,0,0,1,1.07.7,7.09,7.09,0,0,0,.74.52c2.28,1.34,4.19,1.78,5.67,1.3a4.38,4.38,0,0,0,2.57-2.64c3.3-7.56,9.7-6.89,15.34-6.29,4.58.48,8,.14,11.16-1.12a26.51,26.51,0,0,0,7-4.66c5.76-4.8,10.39-4.92,16.52-.43,1.51,1.1,3.22,2.7,3.1,5.35a3.47,3.47,0,0,0,.77,2.74,4,4,0,0,0,3.15.78,10.64,10.64,0,0,1,7,2c1.41,1,2.13,2.05,2.2,3.14a4,4,0,0,1-1.6,3.13c-.83.78-1.63,1.58-2.43,2.38-1.31,1.3-2.65,2.65-4.1,3.85-.71.59-1,1-1.07,1.43a2.25,2.25,0,0,0,.77,1.48c2.21,2.47,3.32,5.65,3.5,10,0,.54,0,1.07,0,1.61,0,2.59,0,5.05,2.64,6.71h0c1.2.76.9,2.26.68,3.36l-.31,1.62c-.47,2.47-1,5-1.36,7.55l-.36,2.11c-.92,5.43-1.87,11-.58,16.64.15.65.61,2.64-.91,3.29-1.34.58-2-.56-2.36-1.24a3.24,3.24,0,0,0-.35-.55c-2.25-2.87-4.69-4.44-7.25-4.69s-5,.76-7.51,2.95c-3.31,2.86-7.15,4.12-12.1,3.93-2.48-.09-3.67-.05-4.18.46s-.54,1.65-.46,3.89c.13,3.67-.76,6-5.63,6.34-2.88.2-4.81,1-5.9,2.41s-1.44,3.94-.77,7.33a13.42,13.42,0,0,0,.81,2.35c.94,2.24,2,4.79-.73,7.09C441.23,537.4,439.51,537.71,437.51,537.71Z"
       transform="translate(-184.73 -34.07)"
       id="path14"
       style="fill:none;stroke:#52a4df;stroke-opacity:1" />
    <path
       class="cls-1"
       d="M224.38,412c-1.81,0-2.37-1.46-2.83-2.64a21.68,21.68,0,0,0-4.3-6.37c-.81-1-1.66-1.94-2.41-3-1.4-1.93-2.15-3.28-1.83-4.47s1.62-1.95,3.77-2.9l.46-.2a5.1,5.1,0,0,0,2.66-1.86,2.59,2.59,0,0,0,.47-2.1,1.54,1.54,0,0,0-1.09-.84,16.52,16.52,0,0,1-7.16-5,6.41,6.41,0,0,0-2.6-1.29l-.51-.18c-.73-.25-1.5-.45-2.25-.64a20.15,20.15,0,0,1-3.52-1.16,15.8,15.8,0,0,0-3.56-1c-2.45-.48-5-1-4.65-2.92a16.43,16.43,0,0,1,8.08-11.25,4.22,4.22,0,0,1,1.15-.39c.93-.23,1.2-.37,1.2-.87s-.4-.74-1.24-1.15a6.52,6.52,0,0,1-1-.54c-.22-.16-.47-.31-.71-.46a4.39,4.39,0,0,1-1.76-1.56,13,13,0,0,0-6.82-6.81,11.79,11.79,0,0,1-3.37-3,21.31,21.31,0,0,0-2.85-2.78,4.16,4.16,0,0,1-1.54-4.17,5.13,5.13,0,0,1,3.52-4.05l.57-.16c1.34-.37,2.5-.69,2.94-2.06s1-2.06,1.75-2.24c1-.23,2,.62,2.78,1.4.13.14.27.28.4.43,1.1,1.19,1.78,1.82,3,.78s1.12-2.19-.07-4.11c-.27-.45-.56-.9-.85-1.35-.51-.8-1-1.64-1.52-2.48l-.12-.2c-.66-1.16-1.49-2.6-.78-3.82,1.53-2.69,1.76-5.56,2-8.6a39.54,39.54,0,0,1,.56-4.68,7.29,7.29,0,0,1,4.8-5.53c8-2.95,11.29-8.32,10.67-17.41-.41-6-2.41-9.47-6.91-12a62.23,62.23,0,0,1-5.72-3.67,7,7,0,0,1-3.3-5.1,6.16,6.16,0,0,1,2.16-4.87c2.85-2.71,4.21-5.21,2.22-9.26a7.47,7.47,0,0,1-.17-5.66l0-.18.16-.1a20.11,20.11,0,0,1,11.76-3.31,18.45,18.45,0,0,1,5.07,1.23,26.33,26.33,0,0,0,3.55,1,27,27,0,0,0,3.27.32,15.76,15.76,0,0,1,6,1.14c3.05,1.44,4.9,4.23,6.69,6.93a32.85,32.85,0,0,0,2.94,4,18.92,18.92,0,0,0,4.83,3.85,12.06,12.06,0,0,0,1.72.7,8,8,0,0,1,3,1.57c1.84,1.83.93,3.58.09,4.75l-.14.14-.12.2c-.19.31-.31.51-.54.59l-.09,0-.13.15-.27.36a8.09,8.09,0,0,1-1.5,1.59c-.26.23-.56.5-1,.89l-.19.19-.3.3-.19.24c-.53.68-.8,1-1.05,1.08a5.35,5.35,0,0,0-.78,1.16,15.38,15.38,0,0,0-.57,11.05l.26.7c.91,2.43,1,3-.84,5.58a7.65,7.65,0,0,1-.49.6,1.43,1.43,0,0,0-.49,1.13,2.64,2.64,0,0,0,.47,1.64l.08.12v.16c0,.95.83,1.52,2.2,2.13.69.3,1.41.65,2.2,1.07l.21.13a1.17,1.17,0,0,0,.25.13,23.84,23.84,0,0,1,9,8.18,3.64,3.64,0,0,0,2.82,1.57,6.33,6.33,0,0,0,5-1.84c.31-.32.6-.67.89-1a11,11,0,0,1,1.39-1.51,6.8,6.8,0,0,1,7.17-1.17c2.37.83,2.63,3,2.85,4.72l0,.31c.77,6,.54,12.66-6.89,16.43a28.4,28.4,0,0,0-5.09,3.67l-1.14,1a5.79,5.79,0,0,0-2.47,4.65,6.19,6.19,0,0,0,3.09,4.64c5.76,3.87,11.44,5.28,17.36,4.31l.08.49-.08-.49a8.9,8.9,0,0,1,5.7,1l.62.33-.5.48a9.54,9.54,0,0,0-3.17,7.59,2.79,2.79,0,0,1-.84,2.23,4.46,4.46,0,0,1-3.5.86c-6.53-.56-8.64,1.24-9.42,8.06a11.57,11.57,0,0,1-8.19,10.08c-2.8.94-4.15,2.95-4.13,6.13,0,1.59,0,3.19,0,4.78,0,1.41,0,2.81,0,4.22a3.61,3.61,0,0,1-4.93,4c-1.58-.34-3.17-.74-4.71-1.13-1.8-.46-3.66-.93-5.5-1.3-5.56-1.11-9.55,0-12.56,3.43a5.74,5.74,0,0,0-.73,1.09l-.06.09a13.15,13.15,0,0,0-2,5.7c-.13.63-.25,1.27-.4,1.9a20.71,20.71,0,0,1-.82,2.62l-.1.26-.27.05c-.44.1-.68.6-1,1.35a6.69,6.69,0,0,1-.35.76l-.07.13c-.52,1-1.18,2.21-2.73,2.26Z"
       transform="translate(-184.73 -34.07)"
       id="path16"
       style="fill:none;stroke:#52a4df;stroke-opacity:1" />
    <path
       class="cls-1"
       d="M302.45,326.25a28.63,28.63,0,0,1-6.15-1.15l-3.67-.93c-2.48-.64-5.05-1.3-7.59-1.88-3.38-.76-5-2.84-5-6.36,0-2.8,0-6.11,0-9.37a3.82,3.82,0,0,0-1-2.93,4.14,4.14,0,0,0-3.28-.64c-4,.44-7.83.86-10.74,4.23a4,4,0,0,1-3.44,1.51,4.13,4.13,0,0,1-3.15-2.15,14.93,14.93,0,0,0-6.65-6.57l-.17-.08-.08-.17a2.23,2.23,0,0,0-.58-.53,10,10,0,0,0-.87-.52,7.54,7.54,0,0,1-1.77-1.23l-.36-.38c-.83-.88-1-1-.89-1.4a.68.68,0,0,1,.49-.45c.19-.06.43-.14.63-.69A6.66,6.66,0,0,1,249,293a3.59,3.59,0,0,0,.83-2.17,6.24,6.24,0,0,0-.87-2.45,11.5,11.5,0,0,1-.68-1.47,12.15,12.15,0,0,1,2.37-12c.55-.56,1.16-1.1,1.82-1.67,2.12-1.85,4.31-3.76,4-6.59-.29-2.61-2.52-3.61-4.89-4.67-.59-.26-1.17-.52-1.71-.8-3.55-1.86-5.67-4.84-7.72-7.73a49.61,49.61,0,0,0-3.07-4,13,13,0,0,0-2.41-2.15h0c-2.75-1.83-5.72-2.15-9.47-2.54a38.25,38.25,0,0,1-5.92-1.24c-3.19-.84-6.21-1.64-9.73-1a22.44,22.44,0,0,0-5.08,1.6l-1.1.49.43-1.12a3.15,3.15,0,0,0-.14-3.22c-2-3-1.31-6.05-.53-8.7,2.81-9.52,8.39-17.91,17.59-26.41C225,203.06,228,203,230.63,203l.91,0,3.34-.1c6.78-.22,13.8-.44,20.7.62l.63.09a5.24,5.24,0,0,1,3.17,1.15c3.4,3.38,7.6,5.73,11.67,8l1.86,1c2.11,1.19,3.23,3.38,4.31,5.5l.5,1c.57,1.08.9,1.17,1,1.17s.37,0,.93-1l.18-.31a9.94,9.94,0,0,1,.61-1,14.75,14.75,0,0,0,.89-1.45c1.13-2,2.4-4.18,5.91-3.37,4.86,1.12,8.06,4.18,8.78,8.39.12.74.23,1.48.34,2.22a31.64,31.64,0,0,0,1.54,6.84c.11.28.2.59.29.9.33,1.14.58,1.84,1.52,1.88a4.44,4.44,0,0,0,4.26-2.27,7.25,7.25,0,0,0,.77-3,5,5,0,0,1,1.47-3.69,4.21,4.21,0,0,1,3.29-.87c5.5.5,8.89-2,11-8.18a21,21,0,0,1,.81-1.95c.17-.39.35-.78.51-1.18a3.55,3.55,0,0,1,2.13-2.37,3.46,3.46,0,0,1,3,.88,10.59,10.59,0,0,0,6,2,6,6,0,0,1,3.79,1.14l.12.1,0,.15c.37,1.3.77,2.58,1.17,3.87l0,.24a1.78,1.78,0,0,0,.37,1.34l.1.1,0,.13c.34,1.12.78,2.62,1.15,4.2,1.88,7.9.29,16.51-1.7,24.63-.51,2.09-1.17,4.2-1.81,6.24a73.58,73.58,0,0,0-2.43,9.22,8.58,8.58,0,0,0-.27,2c-.08.79-.12,1.46-.14,2.09a20.15,20.15,0,0,0,.09,2.15v3c0,2,0,4,0,5.94,0,2.32,1,3.6,3.12,4a16.26,16.26,0,0,1,8.87,5.16,7.65,7.65,0,0,0,3.85,2.36h0a4.48,4.48,0,0,1,2.83,1.66c1.05,1.49.32,4.77-.72,7.34s-2.71,5.26-4.46,5.59c-5.65,1.06-11.42.87-17,.69l-3.68-.1c-7.8-.2-13.27,3.55-17.29,11.69l-.43.87C306.19,324.55,305.23,326.25,302.45,326.25Z"
       transform="translate(-184.73 -34.07)"
       id="path18"
       style="fill:none;stroke:#52a4df;stroke-opacity:1" />
    <path
       class="cls-1"
       d="M402.25,308.13l-.5-.21a36.27,36.27,0,0,0-8.52-3.48,36.94,36.94,0,0,1-8.67-3.51,31,31,0,0,1-6-5.28c-.95-1-1.94-2-3-3l-.12-.17a7.31,7.31,0,0,0-1.81-2.43c-1.62-1.47-2.73-2.31-3.66-2.26s-1.92,1-3.33,2.61c-2.85,3.25-8.3,3.6-11.91.77a7.39,7.39,0,0,0-4.72-2,7.58,7.58,0,0,1-5.27-2.56l-1.1-1.11a21.47,21.47,0,0,0-3.52-3.13l-.14-.14c-4.29-6.3-5.39-11.7-3.82-18.63.66-2.9,1.48-5.78,2.27-8.57a119.23,119.23,0,0,0,2.9-11.64c.87-4.88,1.64-10.64.77-16.4a58.5,58.5,0,0,0-2.25-8.66l-.44-1.38v-.11c.35-2.76,2-4.49,5-5.3a8.78,8.78,0,0,0,3.43-2.25A12.26,12.26,0,0,1,351.2,207c.38-.16.38-.46,0-1.48l-.09-.24c-1.05-2.95-.78-6,.84-9.46.39-.85.76-1.7,1.14-2.55,1.65-3.76,3.35-7.65,6.58-11l.86-.88v1.23c0,.8,0,1.59,0,2.39,0,1.73-.05,3.51.05,5.26a8.28,8.28,0,0,0,2.76,5.73,5.22,5.22,0,0,0,4.05,1.28c9.68-1.17,15.2,4.26,19.33,9.72a106.24,106.24,0,0,0,10.86,12.26,13.52,13.52,0,0,1,4.26,11.08c-.11,2.84,0,4.43.69,5.19s2.23.91,5.35.95h.46a15.78,15.78,0,0,1,3.75.34,4.83,4.83,0,0,1,3.44,2.47,4.43,4.43,0,0,1-.41,3.88c-1.92,3.62-1.31,6,2.09,8.17,3.56,2.29,5.81,6,6.67,10.91a4.34,4.34,0,0,1-.35,3.4,3.43,3.43,0,0,1-2.5,1.14c-.65.07-1.07.24-1.18.49s.08.9.6,1.62c.69,1,1.4,1.91,2.1,2.86.85,1.14,1.73,2.31,2.55,3.49h0c1.35,1.93,2.45,4,1.45,6-.91,1.87-3,1.88-4.67,1.89H421c-5,.17-5,.17-5.61,5.19a10,10,0,0,1-2.87,5.88c-.53.57-1.07,1.12-1.6,1.68-3.27,3.39-6.64,6.9-8.37,11.49l-.08.18Z"
       transform="translate(-184.73 -34.07)"
       id="path20"
       style="fill:none;stroke:#52a4df;stroke-opacity:1" />
    <path
       class="cls-1"
       d="M594.41,305.2l-.28,0A99.74,99.74,0,0,1,582.82,304a31.75,31.75,0,0,0-9.07-.51c-.79,0-1.58.07-2.37.08-4.56.1-7.27-1.51-8.82-5.19-1.44-3.41-4.6-5.25-7.72-6.84-3.84-2-7.69-3.88-11.55-5.8l-4.54-2.26c-2.57-1.29-4-2.18-4.37-3.49s.2-2.76,1.52-5.19c.23-.41.43-.84.63-1.26a18.55,18.55,0,0,1,1.13-2.1c1.73-2.64.14-4.31-1.7-6.25-2.05-2.18-4.23-.77-5.06-.06-4.24,3.57-7.95,3.74-12,.55-1.49-1.17-3.52-.14-5,.92l-1.42,1c-1.62,1.18-3.28,2.4-4.85,3.67l-.32-.38.32.38a3.55,3.55,0,0,1-3,1.06c-.94-.21-1.71-1-2.44-2.48-2.17-4.44-.92-11.14,2.91-15.59,1.41-1.63,2.8-3.27,4.19-4.91,2.84-3.35,5.77-6.82,8.78-10.12,1.83-2,2.13-4,1-6.68-.69-1.6-1.36-3.2-2-4.81-.85-2.05-1.73-4.17-2.64-6.23a11.32,11.32,0,0,1,0-10.16c1.63-3,4.7-4.94,8.64-5.55a1.68,1.68,0,0,1,.49,0c10,.72,17.21-4.36,24.89-12.19,1.76-1.78,3.46-2.62,6.08-.88A17.76,17.76,0,0,0,565,195.31c4.28-.08,8.63-.06,12.85,0,2.46,0,4.93,0,7.4,0,2.9,0,5.65.49,6.49,4.18a2.34,2.34,0,0,0,.81,1.25c5.76,4,8.4,10.09,10.95,16,.8,1.83,1.63,3.73,2.54,5.52a11.43,11.43,0,0,0,7.58,6.45c.51.14,1,.3,1.51.46,3,1,5.57,1.78,8.35-1a3.49,3.49,0,0,1,3.49-.56l.15,0,.1.12a16.36,16.36,0,0,1,4.24,7.67l.07.34-.29.18a5.83,5.83,0,0,1-2.08.75c-1.78.32-2.5,1.28-2.43,3.2.08,2.41-.22,4.92-2.94,6.92a1.81,1.81,0,0,0-.87,1.64,2.83,2.83,0,0,0,1.72,2c5.49,2.54,6.07,7.09,5.88,11.63-.16,3.7-.13,7.47-.09,11.12,0,1.79,0,3.57,0,5.35v1.07c0,2.65.08,5.4-2.43,7.64-.59.52-.46,1.23-.19,2.35a6.68,6.68,0,0,1,.26,1.59c0,.26,0,.54.07.82.12,1,.29,2.34-1,3-1.12.6-2-.13-2.7-.67a5.83,5.83,0,0,0-.72-.52c-.32-.17-.63-.35-1-.55-.35,3-1.67,5.27-3.75,6.34-2.29,1.18-5.2.8-8.18-1.06-1.46-.92-2.56-1.23-3.44-1s-1.67,1.08-2.48,2.62a47,47,0,0,0-2,4.27l-.13.33-.36,0c-1,0-2.09-.05-3.14-.06-1.32,0-2.68,0-4-.1a.76.76,0,0,0-.73.3Z"
       transform="translate(-184.73 -34.07)"
       id="path22"
       style="fill:none;stroke:#52a4df;stroke-opacity:1" />
    <path
       class="cls-1"
       d="M614.78,439.26a5.62,5.62,0,0,1-3.42-1.55c-1.27-1-2.56-2.07-3.84-3.09-1.82-1.43-3.7-2.92-5.49-4.46s-3.25-1.67-4.9-.17c-2.78,2.51-4.7,1.82-7.47-.46-1.49-1.23-3.07-2.38-4.6-3.5a66.21,66.21,0,0,1-7.45-6c-2.19-2.15-6.64-2.08-9.17.13-4.59,4-9.82,3.9-14.87,3.78-1.28,0-2.61-.06-3.89,0A18.34,18.34,0,0,1,539,421.07c-1.22-.79-2.53-.53-4.22.85a13.65,13.65,0,0,1-8.22,3.1,12.35,12.35,0,0,0-5,1.74l-.38.19a7.58,7.58,0,0,1-9.23-1.16,62.64,62.64,0,0,1-5.81-5.92c-1.61-1.94-2.37-3.11-2.07-4.13s1.53-1.56,4-2.34a73.79,73.79,0,0,1,16.2-3.41c1.46-.12,2.36-.48,2.76-1.1s.37-1.58-.11-2.95c-.89-2.54-1.57-5.16-2.18-7.61-.8-3.2.29-5.22,3.42-6.36,3.61-1.3,5.85-3.23,6.68-5.71s.11-5.9-2.23-9.49a12.42,12.42,0,0,0-1.54-1.77c-1.25-1.26-2.55-2.56-2.28-4.4.34-2.32,2.24-2.4,3.78-2.46a5,5,0,0,0,2.42-.47l1.81-1.11a51.62,51.62,0,0,0,5.34-3.56c4.72-3.78,9.05-4.07,13.22-.87a5.43,5.43,0,0,0,4.6.81c2.08-.42,3.51-1.43,4-2.84s.06-3-1.24-4.62A33,33,0,0,0,556,349.2a4.93,4.93,0,0,1-2.45-3.33,4.71,4.71,0,0,1,1.41-3.64,10.1,10.1,0,0,0,1-1.44,11.44,11.44,0,0,1,1.16-1.65c1.48-1.66,1.53-2.86.18-4.58-2-2.53-2-5.72-2.08-8.54,0-1,0-2,0-3,.11-3.74.21-7.27-1.95-10.55a2.06,2.06,0,0,1-.34-1.9,3,3,0,0,1,2.1-1.63c12-3.65,21.24-3.67,30-.06.69.28,1.36.59,2,.9,1,.46,2,.94,3.1,1.31a5.1,5.1,0,0,0,3.95.07,4.29,4.29,0,0,0,2-2.65,4.38,4.38,0,0,1,1-1.56l.15-.17H599c.86,0,1.73,0,2.59,0l.59,0-.11.58c-.94,4.91,1.33,8.73,6.55,11.05a3.56,3.56,0,0,1,2.08,1.93,3.77,3.77,0,0,1-.37,3,6.56,6.56,0,0,1-2.66,2.59l-.22.14c-1.53,1-2.2,1.7-2.23,2.29s.55,1.35,1.94,2.53a10.46,10.46,0,0,1,3.89,8.55c0,4.25.58,4.82,5,5.08,2.3.14,3.51.57,4,1.47s.34,2.11-.6,4.13c-.17.37-.37.74-.57,1.11a11.24,11.24,0,0,0-.75,1.52,2.56,2.56,0,0,0,.91,3.12c.56.43,1.35.73,2.57-.72a4,4,0,0,1,3-1.77h0c1.08,0,2.12.63,3.26,2,1.55,1.84,3.11,2.82,4.65,2.93,4.36.3,6.62,3.09,8.24,5.78,2.41,4,5.24,7.76,11.07,6.83,1.78-.29,3.29.83,3.85,2.86a7.3,7.3,0,0,1,.21,1.39c.09,1.17.2,1.91,1.06,2.28a14.55,14.55,0,0,1,1.64.88l.22.13,0,.26c0,.1,0,.2,0,.3l.06.43-.23.17a35.11,35.11,0,0,0-5.62,6.74c.52,3.36-1.12,5.94-2.71,8.43-1.38,2.17-2.68,4.21-2.64,6.74a2.75,2.75,0,0,1-1.78,2.1c-3.68,1.05-3.77,3.88-3.54,6.92.52,6.66-1.62,11.78-6.53,15.63a19.44,19.44,0,0,0-3.18,3.51q-.45.6-.93,1.2l-.17.21a6.05,6.05,0,0,1-2.89,2.36,40.93,40.93,0,0,0-12.39,5.31A3,3,0,0,1,614.78,439.26Z"
       transform="translate(-184.73 -34.07)"
       id="path24"
       style="fill:none;stroke:#52a4df;stroke-opacity:1" />
    <path
       class="cls-1"
       d="M715.23,549.82a4.81,4.81,0,0,1-2.16-.64c-1.63-.83-3.33-1.59-5-2.32l-2.13-1c-1.15-.52-1.92-.78-2.91,0-4.48,3.71-9.9,3.86-14.87.43-5.77-4-5.77-4-10,1.69a3.36,3.36,0,0,1-2.41,1.65,3.32,3.32,0,0,1-2.58-1.43c-.69-.75-1.38-1.51-2.08-2.26-1.57-1.7-3.19-3.45-4.69-5.27-1.93-2.32-3.93-2.78-6.69-1.52a37.59,37.59,0,0,1-6.79,2.39,9.57,9.57,0,0,1-9.24-2.74,10.06,10.06,0,0,1-2.41-9.85c1.92-6.6,1.4-11.15-1.71-15.21-1.37-1.8-1.48-3.94-.32-6.54,2.45-5.53,2-6.88-3.06-9.61-2.48-1.34-3.87-2.91-2.54-6.2,1.77-4.36,1-8.38-2.47-12.28-.94-1.07-1.81-2.23-2.66-3.35a50,50,0,0,0-3.19-3.92c-4.57-4.87-6-10.84-4.27-18.25,2-8.63,6.54-16.73,13.94-24.75,1.75-1.89,3.58-3.67,5.31-5.34,3.62-3.47,5.23-7.26,4.94-11.59-.16-2.28.11-5,3.56-6.09,2.21-.67,2.44-2.66,2.37-4.71a9.08,9.08,0,0,1,2.72-7.09c1.2-1.26,3.08-3.84,2.18-6.89l-.05-.17.08-.17a14,14,0,0,1,5.57-6.05l.29-.18.27.2c1.81,1.32,3.79,2.6,6.41,2.63l1.1,0a25.25,25.25,0,0,0,2.61,0c2.34-.17,4,.26,5,1.31,1.35,1.43,1.35,3.8.92,6.92a2.87,2.87,0,0,1-2.83,2.45c-3.39.33-4.94,1.71-5.05,4.45,0,1,.94,2.68,2.38,4.16a6.31,6.31,0,0,0,3.72,2.22h.09c4.1,0,5.49,2.1,6.39,5.5.5,1.91.93,2.78,1.46,3s1.83-.33,3.68-1.42a7.8,7.8,0,0,1,4.1-1.39c5.47.14,10.58,2,15.53,3.79l1.57.57a3.39,3.39,0,0,1,2,2.75c.47,3.6,2.69,4.2,5.87,4a4,4,0,0,1,3.36,1.05,4.49,4.49,0,0,1,.9,3.78,32,32,0,0,0,.59,11.37c.4,1.65.86,3,2.37,3.22,1.2.14,1.45-.47,1.78-2,0-.25.11-.5.17-.73.5-1.85,1.86-2.9,4.05-3.13,4.12-.43,8.47-.47,12.29,2.05a77.47,77.47,0,0,1,10.81,9.24c.55.54,1.1,1.08,1.66,1.61a5.39,5.39,0,0,1,1.3,3,11.07,11.07,0,0,0,4,7.39h0a4.49,4.49,0,0,1,1.91,3.44,3.9,3.9,0,0,1-1.82,3c-.32.24-.64.53-1,.81-1.68,1.46-3.77,3.27-6.64.22-.45-.48-.88-1.05-1.34-1.65-1.2-1.59-2.43-3.23-3.79-2.74-.73.26-.56,2-.41,3.56a15.68,15.68,0,0,1,.1,3,5.12,5.12,0,0,0,0,.68c0,.81,0,1.92-1.16,2.39s-1.91-.34-2.47-.91a5.7,5.7,0,0,0-.51-.48c-1.8-1.4-3.12-1.59-4.56-.65-.65.43-1,.79-1,1.15a1.24,1.24,0,0,0,.29.91c2.3,3.22.83,6.1-.72,8.55a37.88,37.88,0,0,0-4.74,11.58,3.25,3.25,0,0,0,.06,2.49,2.66,2.66,0,0,0,1.86.93,5.74,5.74,0,0,1,4,2.28c.85,1.28,1,3.06.54,5.28a20.89,20.89,0,0,0-.16,8.72,4,4,0,0,1-2.63,5l-1,.39c-.7.28-1.42.56-2.09.89-5.3,2.59-10.85,6.28-11.94,14-.46,3.25-1.25,6.51-2,9.65-.43,1.77-.88,3.59-1.26,5.39-.33,1.61-.89,2.54-1.73,3A2.27,2.27,0,0,1,715.23,549.82Z"
       transform="translate(-184.73 -34.07)"
       id="path26"
       style="fill:none;stroke:#52a4df;stroke-opacity:1" />
    <path
       class="cls-1"
       d="M632.94,232.05l-.22,0-.27,0-.11-.25a21,21,0,0,0-3.55-5.3l-.07-.09a3.13,3.13,0,0,0-2.05-1.68c-1.12-.24-2.48.22-4,1.33-2,1.5-3.63,1.15-5.51.75-7.06-1.52-9.89-6.7-11.58-11.05-1-2.61-2.27-5.19-3.49-7.69-.45-.94-.91-1.87-1.36-2.81l-.31-.67c-1-2.24-2-4.36-4.39-5.44a2.65,2.65,0,0,1-1.45-1.78c-.51-4.2-3.26-4.17-6.74-4.12h-.29c-3.33,0-6.72,0-10,0-2.91,0-5.82,0-8.73,0h-.32a28.4,28.4,0,0,1-22.94-10.89c-1.87-2.28-3.93-4.64-6.14-7-2-2.11-.94-3.94.17-5.31a2.62,2.62,0,0,1,1.88-1.11,3.6,3.6,0,0,1,2.64,1.5c2.29,2.37,4.18,2.31,7-.22,3.34-3,7-5.84,10.44-8.56l2.95-2.31c3.65-2.89,3.87-4.05,1.48-7.8a10.78,10.78,0,0,1,.34-12.82c1.54-2.17,1.67-3.91.48-6-1.93-3.39-2-7.12-2-10.74v-.82c0-3,1.45-4.56,4.52-4.68,5.35-.21,8.73-3.66,9-9.22a4.75,4.75,0,0,0-1.2-3.09,39.62,39.62,0,0,0-5-5.59l-1.27-1.26c-1.34-1.35-2.57-2.58-3.31-2.5-.18,0-.47.11-.91.75l-.2.29-.34-.09a1,1,0,0,0-.9.24c-4,3.59-7.11,3.63-11.81,3.7h-.8l-1.47,0c-5.48.13-11.16.28-13.78-6.25-.34-.86-.64-1.75-.93-2.6a18.32,18.32,0,0,0-3-6.11,17.53,17.53,0,0,0-5.35-4l-.35-.19.11-.38a9.67,9.67,0,0,0,.31-2.35c.06-6,0-12.21,0-18.16V59.5c0-3.11.68-5.27,4.25-7.09,9.25-4.71,17.5-9.11,24.72-15.11a14.66,14.66,0,0,1,6.65-3c2-.39,3.47-.22,4.55.54s1.79,2.16,2.12,4.34a12.55,12.55,0,0,0,.78,3.11c.25.57.52.9.76.93s.68-.27,1.15-.83c1.79-2.18,3.7-3.27,5.77-3.26s4.35,1.32,6.39,3.89c.39.48.79.95,1.18,1.42,1.94,2.31,3.77,4.49,4.2,7.77.11.79,1,1.24,1.88,1.71.21.1.41.21.6.32,5,2.79,9.5,12.08,8.67,17.76a6.24,6.24,0,0,1-2.33,4.12l-.4.31c-.92.69-1.3,1.07-1,1.79s.83.74,1.76.82c.27,0,.54,0,.79.1l.36.06,1.85.33c5.06.86,5.66,1.56,5.82,6.79.14,4.6.22,4.69,4.63,4.69h.8c2.91,0,5.92,0,8,3.13.42.64,1.42.64,2.41.64h7.07c5.81,0,6.06.24,6.48,6,0,.66.11,1.39.52,1.58h0c3.27,1.51,3.21,4.31,3.15,6.79,0,.37,0,.74,0,1.11,0,1.88,0,3.75,0,5.62s0,3.75,0,5.62c0,3-1.25,4.66-3.85,5-1.63.24-2.83,1.2-3.88,3.1A47.22,47.22,0,0,0,628.5,146c-.24,1.69.09,2.41,1.24,2.76,2.86.85,3.83,3.16,4.4,5.3s1.23,4.49,1.85,6.74c1.45,5.25,3,10.69,4.17,16.1,1.35,6,1.08,12.15.82,18.11-.08,1.81-.16,3.68-.19,5.52a8.11,8.11,0,0,1-2.88,5.56,49.31,49.31,0,0,1-5.13,4.46c-1.78,1.28-2.83,2.24-2.92,3.34-.08.91.5,2,1.79,3.3,3.17,3.24,2.87,7.57,2.59,11.75,0,.51-.07,1-.1,1.52a1.8,1.8,0,0,1-.52,1.34A1,1,0,0,1,632.94,232.05Z"
       transform="translate(-184.73 -34.07)"
       id="path28"
       style="fill:none;stroke:#52a4df;stroke-opacity:1" />
    <path
       class="cls-1"
       d="M530,202.69a5.09,5.09,0,0,1-2.83-.77c-1.74-1.12-2.66-3.45-2.67-6.74v-1.87c0-8.28-2.23-11.12-10.3-13.19a3.53,3.53,0,0,0-3.37.84L508,183.2c-1.68,1.31-3.41,2.68-5.06,4.07-2.32,1.95-4.28,2-6.57.27-8.39-6.47-16.91-12.8-24.25-18.22-1.69-1.26-2.49-2.51-2.51-3.94v-.15l.09-.13a41,41,0,0,0,4.48-9.36,87.43,87.43,0,0,0,5.17-15.35c.2-.81.44-1.64.7-2.49a80.55,80.55,0,0,1,7-11.36c.81-1.16,1.62-2.32,2.41-3.5l.09-.1a25,25,0,0,1,2.13-1.65,7.07,7.07,0,0,0,2.94-5.37,9.84,9.84,0,0,1,4.43-7.52c2.61-1.74,3.45-4.45,2.64-8.52-.52-2.61-2.47-3.13-5.21-3.09h-.11l-.1-.05a13.66,13.66,0,0,1-4.8-3.23l-.32-.36.34-.33c1.43-1.4,3.56-1.95,6.52-1.68,5.87.53,9.47-1.51,11.67-6.62,1.24-2.89,3.88-3.92,7.25-2.81,1.11.36,2.18.8,3.17,1.23,2.77,1.18,5.09,1,6.54-.4l.26-.26.32.17A16.92,16.92,0,0,1,531,85a13.77,13.77,0,0,1,3.34,5.82l.06.17.25.72h0c.18.53.36,1.07.56,1.6,1.08,3,2.85,6.53,7,7.86,3.43,1.11,7.51.91,11.45.72,1.11,0,2.19-.11,3.23-.13,4.18-.08,6.87-1.74,9.85-4.41l.24-.27h.23a4.14,4.14,0,0,1,3.09,1.71l.6.69c2.65,3,5.38,6.18,3.54,11-1,2.65-3.08,4-6.33,4-6.53.15-6.53.15-6.63,6.75-.07,4.26.26,7.76,2.06,11a6.8,6.8,0,0,1-1.09,8.24c-2.77,3.07-2.2,5.78-.49,8.91,3.39,6.21,3.31,6.62-2.17,10.93l-.51.41c-3.24,2.55-6.59,5.2-9.78,7.91-2.52,2.13-4.79,2.1-6.93-.11a3.59,3.59,0,0,0-2.49-1.27,3.7,3.7,0,0,0-2.57,1.49c-1.88,2.13-3.26,4.09-1,6.56l2.22,2.46c2.23,2.47,4.53,5,6.85,7.49,1.27,1.35,1.85,2.58,1.76,3.77a5.08,5.08,0,0,1-2.25,3.47c-1.78,1.42-3.49,3-5.13,4.56-1,.9-1.93,1.8-2.92,2.67a10.08,10.08,0,0,1-2.56,1.79A11.06,11.06,0,0,1,530,202.69Z"
       transform="translate(-184.73 -34.07)"
       id="path30"
       style="fill:none;stroke:#52a4df;stroke-opacity:1" />
    <path
       class="cls-1"
       d="m 416.92,191.88 c -6.48,0 -13.17,-2.48 -16.63,-5.9 -3.89648,-3.9753 -9.378,-5.98127 -14.92,-5.46 -2.59316,0.16959 -5.17681,-0.45104 -7.41,-1.78 -1.19897,-0.69128 -2.47863,-1.23203 -3.81,-1.61 -4.17,-1.8 -7.95,-0.72 -12,0.43 -1.27,0.37 -2.58,0.75 -3.9,1 l -0.3,0.06 -0.2,-0.23 c -0.587,-0.75112 -1.12479,-1.53943 -1.61,-2.36 -1.25718,-2.44032 -3.76495,-3.98119 -6.51,-4 -2.59,-0.15 -5.12,-0.72 -6.06,-3.83 -0.89573,-2.61477 -0.07,-5.51079 2.07,-7.26 l 0.81,-0.8 c 0.60427,-0.65993 1.27442,-1.25637 2,-1.78 3.26,-2.19 4.9,-4.21 3.64,-8.08 l -0.34,-1 c -1.37,-4.32 -2.56,-8.05 -7.8,-8.55 -2.49,-0.24 -3.85,-1.51 -4.17,-3.89 l -0.1,-0.83 c -0.48,-3.66 -0.92,-7.12 -3.27,-10.15 -0.58062,-0.70272 -0.83837,-1.61752 -0.71,-2.52 0.28129,-1.25528 1.06584,-2.33992 2.17,-3 4.26,-2.92 8.57,-5.92 12.73,-8.83 l 4.8,-3.34 c 1.35,-0.94 2.92,-1.76 4.53,0.28 0.40702,0.57046 1.0422,0.9355 1.74,1 0.66622,-0.0375 1.28472,-0.3577 1.7,-0.88 2.87,-3.19 6.65,-3.42 10,-3.39 2.41,0 3.86,-0.38 4.67,-1.27 0.81,-0.89 1.09,-2.52 0.81,-5 -0.39285,-2.631608 -1.59108,-5.076966 -3.43,-7 -4.44,-5.23 -5.12,-11 -2,-17.29 1.20655,-2.187382 1.05502,-4.872273 -0.39,-6.91 l -0.31,-0.52 c -0.94741,-1.418327 -1.7197,-2.946101 -2.3,-4.55 -1.52,-4.7 -0.14,-8.32 4,-10.47 1.2,-0.63 2.39,-1.35 3.55,-2 3.18,-1.92 6.46,-3.9 10.46,-4.35 4.65,-0.51 9.57,-0.64 14.06,2 0.4274,0.333113 0.97828,0.464449 1.51,0.36 0.33,-0.13 0.59,-0.56 0.79,-1.29 1.41,-5.19 4.83,-7.32 11.08,-6.89 2.81,0.19 5.69,0.15 8.48,0.11 2,0 4.07,-0.06 6.11,0 6.13,0.17 13.83,7.64 13.95,13.55 0.08,3.82 1.46,6.22 4.46,7.79 1.14236,0.447825 2.01599,1.395176 2.37,2.57 0.14488,1.211619 -0.27122,2.423102 -1.13,3.29 -0.62,0.76 -0.81,1.4 -0.59,1.93 1.21909,3.139423 1.6893,5.616105 3.09,9.61 1.4007,3.993895 2.73,9.86 5.44,14.3 0.78,1.27 1.33,2 2,2.15 0.76507,0.05923 1.52375,-0.176963 2.12,-0.66 1.62804,-0.973175 3.55187,-1.328125 5.42,-1 4.51,0.73 7.93,-0.1 10.75,-2.64 0.84523,-0.819265 2.02834,-1.190146 3.19,-1 1.0563,0.237155 1.94071,0.955043 2.39,1.94 1.23,2.49 3,3.4 6,3 h 0.24 l 0.18,0.18 c 0.68752,0.709722 1.45228,1.34031 2.28,1.88 l 0.09,0.08 c 1.113,1.156092 2.36996,2.16435 3.74,3 v 0 c 1.64304,0.87155 2.69824,2.5515 2.77,4.41 -0.10908,1.68987 -1.12252,3.18899 -2.65,3.92 -2.68073,1.32679 -4.47954,3.95115 -4.75,6.93 l -0.05,0.17 c -1.93621,3.66262 -4.16337,7.16387 -6.66,10.47 -0.86,1.22 -1.72,2.43 -2.56,3.66 -0.56,0.79 -1,1.52 -1.47,2.23 -1.43681,2.21177 -2.65903,4.55575 -3.65,7 -1.12941,2.99218 -2.10731,6.03938 -2.93,9.13 -1.27,4.5 -2.57,9.15 -4.81,13.33 l -0.06,0.09 c -2.6122,3.09638 -6.06425,5.37112 -9.94,6.55 -3.93,1.25 -7.14,3.91 -10.25,6.48 l -1.13,0.94 c -1.17,0.95 -1.48,2.24 -1.61,4 -0.11459,2.2686 -0.40209,4.52514 -0.86,6.75 -0.42,1.9 -1.35,3.15 -2.61,3.53 -1.26,0.38 -2.73,-0.15 -4.13,-1.49 -5.14,-4.93 -5.24,-5 -10.15,-0.43 -3.13,2.93 -7.52,4.13 -12.03,4.13 z"
       transform="translate(-184.73,-34.07)"
       id="path32"
       style="fill:none;stroke:#52a4df;stroke-opacity:1"
       inkscape:connector-curvature="0"
       sodipodi:nodetypes="sccccccccccccccccccccccccccccscccccccccccccccccccczccccccccccccccccccccccccccccccsccs" />
    <path
       class="cls-1"
       d="M582.56,557.09a11.93,11.93,0,0,1-6.35-2c-1.63-1-2.6-1.3-4-.1-1.71,1.46-3.82,1.11-5.47.65l-10.7-3-21.39-6c-3.83-1.07-8.27-2.32-12.64-3.49-3.27-.87-5-3-4.9-6.13,0-.68,0-1.37,0-2.05,0-3.16-.05-6.43,1.87-9.76,1.38-2.4-.31-5.59-1.8-8.4l-.49-.91a29.9,29.9,0,0,0-3.14-4.57q-.59-.74-1.14-1.47c-1.75-2.32-3.34-3.42-5.91-1.69s-4.68-.47-5.59-1.41c-2.67-2.77-5-3.07-7.55-1l-.79.66,0-1.59a42.33,42.33,0,0,0-.88-9.16l0-.1,0-.11c.74-3.86,1.47-7.61,2.21-11.35.29-1.48.63-3,1-4.39s.73-3.17,1-4.76c.55-2.84-.1-4.8-2-6.18a4.36,4.36,0,0,1-2.12-3.5c0-3.6-.32-7.77-2.92-11.48a2,2,0,0,1,.1-2.36l.2-.26c2.86-3.68,5.81-7.48,11.07-7.6,3.71-.09,5.66-1.72,6.51-5.46.41-1.77.91-3.53,1.4-5.24.26-.91.52-1.82.77-2.73.48-1.76,1.25-2.27,1.82-2.38.77-.16,1.58.29,2.39,1.33,2.05,2.63,4.3,2.86,7.53.75a12.26,12.26,0,0,1,6.21-2.09A11.68,11.68,0,0,0,534,425a5.57,5.57,0,0,1,6.8-.6,20.06,20.06,0,0,0,12.74,2.14,11.13,11.13,0,0,1,3.5.11,10.64,10.64,0,0,0,9.33-2.52,9.63,9.63,0,0,1,7.28-2.52,9.46,9.46,0,0,1,6.39,4.07c1.7,2.26,3.34,3.87,5.85,4.4a7.43,7.43,0,0,1,4.15,3,4.07,4.07,0,0,0,2.75,1.8,3.9,3.9,0,0,0,2.86-1.34c3.44-3.27,6.28-1.37,8.13.34,1.25,1.15,2.61,2.23,3.94,3.27s2.41,1.89,3.56,2.92c2.46,2.2,4.57,2.3,7,.32l.66-.55c1.43-1.21,3.38-2.87,5.08-1.37,1.39,1.23.25,2.91-.66,4.25a11.35,11.35,0,0,0-.79,1.25c-2.81,5.64-5,10.4-5,16.08a16.78,16.78,0,0,0,3.58,10.82c1.1,1.4,2.17,2.8,3.25,4.21,1.47,1.94,3,3.94,4.55,5.86,3.2,4,3.76,8,1.72,12.39a19.47,19.47,0,0,0-.87,2.44c-.1.35-.21.71-.33,1a2.52,2.52,0,0,0,0,2.12,2.47,2.47,0,0,0,1.91.85,18.05,18.05,0,0,1,2.28.38c2.21.5,3.54,1.32,4.08,2.51s.29,2.59-.69,4.4c-1.74,3.21-2.2,5.67.57,8.8,1.58,1.77,1.61,4.07,1.65,6.3a17,17,0,0,0,.25,3.3c1.14,5.24-1.13,7.78-5.15,10.18a30.38,30.38,0,0,0-6.46,5.89c-.52.58-1,1.16-1.57,1.72-2.73,2.9-5.8,3.29-9.39,1.2-1.6-.93-3.18-1.9-4.76-2.86l-.7-.43c-2.39-1.46-4-1.43-5.52.1a2.7,2.7,0,0,1-3.28.53c-2.45-1.07-4.28-.35-5.94,2.32s-3.31,5.07-5.22,7.82C589.26,555.32,586,557.09,582.56,557.09Z"
       transform="translate(-184.73 -34.07)"
       id="path34"
       style="fill:none;stroke:#52a4df;stroke-opacity:1" />
    <path
       class="cls-1"
       d="M499.78,440.77a4.15,4.15,0,0,1-3.33-2,12.41,12.41,0,0,0-9.66-5.45,3.72,3.72,0,0,1-3.6-3.53c-.31-2.17-1.62-3.67-4.12-4.73a41.5,41.5,0,0,1-3.71-1.87l-1.64-.89a7.77,7.77,0,0,0-7.44-.1c-2.8,1.37-5.22,1.56-7,.55s-2.8-3.09-3-6.08c-.33-4-2.07-7.63-5.48-11.27-2.14-2.29-3-4.56-2.75-7.15a26.81,26.81,0,0,1,1.71-7.43c.38-1.14.77-2.32,1.07-3.5.82-3.14,1.77-6.3,2.69-9.36.44-1.44.88-2.88,1.3-4.33.5-1.72.56-2.71.18-3.33s-1.35-1-3.21-1.39c-2.9-.55-4.57-1.41-5.42-2.8s-.84-3.27,0-6.1a16.24,16.24,0,0,1,15.7-11.74h.53c.8,0,1.63,0,2.44-.06s1.5-.21,1.81-.71a2.11,2.11,0,0,0-.19-1.83c-.25-.56-.52-1.12-.8-1.66-.55-1.08-1-2-1.42-2.85-2.59-5.27-2.59-5.27-8.61-3.23l-2,.67c-1.91.63-3.17.64-4.09.05s-1.46-1.86-1.69-4c-.64-6.36-.64-6.36-7-6.4-.68,0-1.27,0-1.86,0-3.18.09-6.46.18-9.1-2.81s-3-5.83-1-8.43c4.87-6.52,6.92-13.28,6.29-20.65a3.2,3.2,0,0,1,.79-2.75c.77-.71,2-.89,3.79-.59,2.84.47,5.68.92,8.53,1.37,4.84.77,9.85,1.57,14.76,2.45a13.61,13.61,0,0,0,8.75-1.17,173.23,173.23,0,0,0,36.85-23.33c3.3-2.78,7.05-4.92,12.07-1.83,2.08,1.28,4.63.74,7.79-1.64,1.29-1,3.24-2.44,5.3-.48,1.5,1.41,1.61,3.18.33,5.41l-.25.42-.32.55c-2.29,4.08-3.25,6-2.82,7.44s2.35,2.54,6.61,4.71c5.69,2.89,10.82,5.49,16.09,8a15.61,15.61,0,0,1,6.59,6.33,3.32,3.32,0,0,1,.64,2.92,3.24,3.24,0,0,1-2.4,1.66c-1.94.53-3.89,1.2-5.78,1.84l-2,.68c-.56.18-1.25.5-1.4,1s.24,1.13.59,1.59c2.53,3.29,3.46,7.23,2.83,12.05-.58,4.45,0,7.89,1.81,10.54,2.18,3.19.67,5.4-.79,7.53l-.28.4c-1.65,2.45-2.54,3.75-2.4,4.68s1.34,1.91,3.54,3.68l.12.1c1.6,1.29,3.08,2.75,4.52,4.17l.72.7c1.59,1.56,2,3.12,1.07,4.65-.58,1-1.84,2.09-4.51,1.62a8.42,8.42,0,0,1-3.3-1.29c-3.28-2.26-6.58-2.1-9.81.45-4.05,3.2-8.93,6.6-15.51,6.43a2.21,2.21,0,0,0-2,.78,3.44,3.44,0,0,0,.13,3.14,24.93,24.93,0,0,0,3.21,4.86l.48.62c2.55,3.32,3.46,6.33,2.7,9s-3,4.57-6.82,6c-4.56,1.67-4.92,2.38-3.5,6.85l.26.78c.15.46.3.91.44,1.37,1,3.49,1.37,5.14.64,6.33s-2.74,1.68-6.37,2.31a75.93,75.93,0,0,0-13.49,4.1,3.17,3.17,0,0,0-2.09,2.56,4.2,4.2,0,0,0,1.85,3.9c4.24,3.12,3.93,7.08,3,10.89a56.42,56.42,0,0,1-2.5,7.54,4.65,4.65,0,0,1-3.57,3.14A2.17,2.17,0,0,1,499.78,440.77Z"
       transform="translate(-184.73 -34.07)"
       id="path36"
       style="fill:none;stroke:#52a4df;stroke-opacity:1" />
    <path
       class="cls-1"
       d="M380.41,486.61a7.58,7.58,0,0,1-5.66-2.14c-1.87-2-2.33-5-1.3-8.58.44-1.51.46-2.5.06-3s-1.27-.71-3.07-.67h-.6a18.82,18.82,0,0,1-4.74-.3,9.39,9.39,0,0,0-1.67-.18c-1.77-.1-4-.22-4.56-3.05-.08-.38-.17-.77-.26-1.16-.77-3.34-1.64-7.12,1.9-10.12,4.57-3.88,6.63-9.21,6.48-16.78-.1-5-3-8.53-6-12.27l-.2-.25a16.69,16.69,0,0,1-.37-20.68,8.93,8.93,0,0,0,2.18-5.1c.12-2.72,1.67-4.83,4.73-6.44a4.34,4.34,0,0,0,2.39-2.39,4.45,4.45,0,0,0-.7-3.4,44.47,44.47,0,0,1-2.32-5.31c-.16-.43-.33-.86-.5-1.29a7.11,7.11,0,0,1,.9-7.16c3.18-4.62,3-7.06-.92-11.36l-.21-.22a12.26,12.26,0,0,1-1.27-1.57c-.71-1.11-.7-2,0-2.68l.29-.29.33.23-.14.51.23-.45a14.55,14.55,0,0,0,1.73.71l.09,0,.6.36c2.45,2.43,5.62,3.36,9,4.34a34.16,34.16,0,0,1,6,2.17l.16.13c1,1.19,1.83,2,2.95,2.13l.16,0,.12.11c.41.36.8.52,1.07.43s.5-.48.59-1l0-.17.13-.12c2.69-2.43,3.89-9.61,3-12.09a5.37,5.37,0,0,0-.31-.69l-.06-.13v-.14c.07-.72-.45-1.34-1.25-2.07l-.12-.15a6.43,6.43,0,0,1-.53-1.52,8.82,8.82,0,0,1,.17-3.52l0-.17.14-.12c1.16-1,1.27-2.25.35-4.23l-.05-.1v-.11c0-2.4,0-4.88,3.53-6.21a29.37,29.37,0,0,1,6.5-1.3c3.9-.49,7.93-1,10.24-3.77l.08-.1.13-.05c1.08-.41,1.66-.85,1.83-1.38s-.12-1.65-1.08-3.14c-3.79-5.92-5.22-12.68-4.64-21.91.23-3.51,2.46-5.72,4.61-7.85a26.69,26.69,0,0,0,2.51-2.72c.61-.8,1.28-1.55,1.92-2.28,1.72-1.94,3.34-3.77,4-6.4a2.93,2.93,0,0,1,1.88-1.92,8.19,8.19,0,0,1,6.84.65,10.3,10.3,0,0,1,5.31,7.88c.78,8-.6,14.56-4.21,20.1-2.32,3.56-2.83,7.17-1.45,10.18s4.78,5.2,9.2,5.78a12.77,12.77,0,0,0,2.69,0c2-.15,4-.32,5.54,1.22s1.35,3.39,1.2,5.25a12.05,12.05,0,0,0,0,2.61,3.22,3.22,0,0,0,1.2,2.41,3.13,3.13,0,0,0,2.62,0l2.26-.73c1.6-.5,3.25-1,4.84-1.62,2.89-1.06,5-.05,6.23,3h0a3.07,3.07,0,0,1,.14,2.74,3.14,3.14,0,0,1-2.46,1.26,20.53,20.53,0,0,0-17,17.82c-.43,4.67.59,6.07,5,6.79a4.27,4.27,0,0,1,3.16,1.67c.56.89.59,2.06.1,3.69-.72,2.37-1.38,4.81-2,7.16-1,3.58-2,7.27-3.19,10.85-1.51,4.48-.83,8.08,2.13,11.3a16.72,16.72,0,0,1,4.89,10.62c.16,2.72,2,4.5,4,6a3.75,3.75,0,0,1,1.79,2.8c0,1-.6,2-1.94,3.1A11.8,11.8,0,0,1,450.2,431c-1.93,0-3.87,0-5.8,0h-1.95l-.5,0-1.39,0a20.87,20.87,0,0,1-3.16-.06c-4.68-.55-7.7,1.06-9.77,5.23-.95,1.9-2,3-3.31,3.39s-2.82,0-4.76-1.11a9.92,9.92,0,0,1-1.08-.79c-1.29-1-2-1.53-3.07-.27-.37.44-.78.87-1.19,1.31-1.7,1.76-3.3,3.43-2.17,6.22l.17.38.13.3c.57,1.32,1.07,2.49,1.46,3.51l.11.51a20.53,20.53,0,0,1,.55,4.95l0,.15c-.62,1.63-2.1,3.18-4.79,6l-.27.28c-1.14,1.19-2.27,2.39-3.4,3.58l-.42.43c-8.07,5.39-14.19,12.6-20.79,20.78l-.09.11-.13.05a7.24,7.24,0,0,1-.83.24A13.81,13.81,0,0,1,380.41,486.61Z"
       transform="translate(-184.73 -34.07)"
       id="path38"
       style="fill:none;stroke:#52a4df;stroke-opacity:1" />
    <path
       class="cls-1"
       d="M466,294.57a11.19,11.19,0,0,1-1.91-.16c-8.78-1.46-17.45-3-25.83-4.52-5.17-.92-7.94-4-8.24-9-.2-3.32-2-6-4-8.4-1.2-1.47-1.59-2.57-1.24-3.47s1.29-1.38,2.93-1.62c1.2-.17,1.45-.5,1.5-.63s.09-.54-.71-1.5a15.53,15.53,0,0,1-3.3-7.69c-.5-3-3.08-4.84-5.36-6.47-3.35-2.38-4-4.84-2-8.22a5,5,0,0,0,.08-4.71,6.44,6.44,0,0,0-4.68-3.53,20.09,20.09,0,0,0-3.56-.14,4.53,4.53,0,0,1-3.45-1.05,3.88,3.88,0,0,1-1-2.93c.06-6.55-3.67-11-7.34-14.52a176.19,176.19,0,0,1-12.83-14.2c-4.88-5.81-9.5-7.78-15.46-6.58a6.37,6.37,0,0,1-5.65-1.83l-.07-.08c-2.13-3.23-1.43-7.4-.81-11.08q.1-.63.21-1.23a2.09,2.09,0,0,0,0-.25v-.09l.57-1.75.26-.07c.55-.15,1.09-.28,1.63-.4l.12,0,.12,0a51.54,51.54,0,0,0,5.06,1c3.56.6,7.25,1.22,10.52,3.38a5.83,5.83,0,0,0,3.18.41c.35,0,.68,0,1,0a23.43,23.43,0,0,1,16.31,6.23,20.31,20.31,0,0,0,28-.78c1.61-1.56,2.81-2.21,4-2.18s2.33.75,3.82,2.4a9.77,9.77,0,0,1,1,1.4c1,1.61,1.71,2.57,3.5,1.86,3.2-1.27,5.07-3.41,5.55-6.36a6,6,0,0,0,.06-.74v-.33a16,16,0,0,1,5.41-11.52,16.42,16.42,0,0,1,12.6-3.43,10,10,0,0,1,4.94,2.22l8.86,6.64c5.36,4,10.9,8.14,16.29,12.29,2,1.54,3.23,1.91,5.08,0a60.73,60.73,0,0,1,7.24-6,8.3,8.3,0,0,1,8.26-.57,7.89,7.89,0,0,1,4.91,6.29h0a61.29,61.29,0,0,1,0,9.09l0,.71a5.7,5.7,0,0,1-3.42,5.08c-6.84,3.5-9.31,10.19-6.43,17.45.37.92.71,1.85,1.06,2.77.78,2.08,1.59,4.22,2.57,6.23,1.69,3.48,1.24,6.49-1.43,9.46-1.79,2-3.57,4.05-5.29,6.05-2.12,2.47-4.31,5-6.56,7.46-4.18,4.54-5.24,9.19-3.33,14.64,2.22,6.38,1.91,7.17-4.22,10.6-7.12,4-14.36,8.09-22.15,12.57A12.55,12.55,0,0,1,466,294.57Z"
       transform="translate(-184.73 -34.07)"
       id="path40"
       style="fill:none;stroke:#52a4df;stroke-opacity:1" />
    <path
       class="cls-1"
       d="M357.56,407.53c-1.9,0-3-1.51-3.81-2.9l-.05-.09a25.14,25.14,0,0,0-4.36-6.19c-3.22-3.07-3.92-2.69-7.8-.58l-2.1,1.16c-4.69,2.63-9.53,5.35-15.43,5.11-3-.12-5.11-1.07-6.33-2.88-3.11-4.63-7.89-6.61-13.36-8.55-4.45-1.58-6.18-2.29-6.65-3.52-.39-1,.18-2.09,1.14-3.87.42-.78.94-1.76,1.49-2.93l.16-.35c.94-2,1.74-3.7.38-5.82-2.09-3.29-4.2-4.09-7.5-2.86a55.63,55.63,0,0,1-8.47,2.15l-1.79.35A6.31,6.31,0,0,1,275,368c.06-.32.14-.64.23-1l.13-.52,0-.11c1.65-7.18,1.91-7.39,9.33-7.51,3.56-.06,5-1.31,5-4.47a7.52,7.52,0,0,1,2.37-5.29,3.86,3.86,0,0,0,1.2-3.81,4.07,4.07,0,0,0-3.39-2.51,27.24,27.24,0,0,0-4.78-.32c-.71,0-1.42,0-2.11,0a20.88,20.88,0,0,1-13.37-2.64c-2-1.19-3.06-2.62-3.18-4.14s.7-3,2.36-4.44l.2-.15.11-.08,1.74-1.38c9.66-7.67,9.84-7.82,17.92-5.69,1.51.4,3.38.89,5.65,1.41,1.5.35,3,.78,4.44,1.21l1,.29c6.9,2,7.19,1.88,10.46-4.54.32-.63.63-1.27.94-1.92a31.08,31.08,0,0,1,4.15-6.91,13.92,13.92,0,0,1,11.3-5c3.14,0,6.33,0,9.42,0,3.8,0,7.71,0,11.57,0s5.62-1.23,6.09-4.54a7.22,7.22,0,0,1,.43-1.46,6,6,0,0,0,.38-1.38,5.88,5.88,0,0,1,1.85-4.29c1.16-1,2.81-1.33,5.06-1.11,3.67.35,6.41-.94,8.12-3.86l.3-.41.4.1a16.19,16.19,0,0,1,5,3.44l.08.08,0,.12c1.35,4,4.72,5.86,8.05,7.46a21.82,21.82,0,0,0,3.59,1.72l.26.13,2.18,1.11c3.21,1.66,6.54,3.37,9.88,4.88a10.43,10.43,0,0,1,2.73,1.77l.16.14v.23c0,4.52,2.1,9.51,3.95,13.91.49,1.16,1,2.28,1.37,3.32a.93.93,0,0,0,.23.37l.2.21-.08.28a.87.87,0,0,0,0,.26v.33a.86.86,0,0,0,.07.34l.12.3-.22.23a6.61,6.61,0,0,1-1,.85,6.7,6.7,0,0,1-1.51.55c-2.69.62-5.49,1.29-8.32,2-2.75.32-5.29.69-7.07,1.81l-.2.11-.74.2c-1.84.5-3,.91-3.26,1.54s.1,1.76.87,3.51c.14.32.27.64.4,1l0,.11V344c-.06.77-.09,1.56-.12,2.32a28.54,28.54,0,0,1-.3,3.77l-.06.36-.17.22a2.64,2.64,0,0,0,.32,3.75l.25.25.2.25c.13.29.27.59.44.9a12,12,0,0,1,.88,2.21l0,.09v.09a5.81,5.81,0,0,1-1.16,2.8,6.16,6.16,0,0,0-.75,2.53c-.22,1.38-.45,2.82-1.78,3.3l-.49.12-.66-.81a10.49,10.49,0,0,0-3-2.66,27.67,27.67,0,0,0-7.31-2.42,45.2,45.2,0,0,1-5-1.38l-.34-.19a.88.88,0,0,0-.45-.14l-.17,0-1-.46a1,1,0,0,0-.51-.11h-.22l-.16-.17c-.91-.95-1.57-1.55-2.4-1.1-1,.53-1.32,1.64-1.06,3.5a10,10,0,0,0,3.19,5.47c2.91,2.95,3.19,6,.84,9-2.79,3.62-2.92,6.93-.43,11.07,3.25,5.41,2.9,6-1.9,10.6-1.76,1.7-2.29,3.95-2.59,6.13-.21,1.55-.51,3.67-2.85,4.19A4,4,0,0,1,357.56,407.53Z"
       transform="translate(-184.73 -34.07)"
       id="path42"
       style="fill:none;stroke:#52a4df;stroke-opacity:1" />
    <path
       inkscape:connector-curvature="0"
       style="fill:#52a4df;stroke-width:0.55592549"
       d="m 329.66292,92.635527 v 7.167819 h -1.56461 v -5.816174 h -2.34694 l -0.0488,1.495005 c -0.0326,1.01715 -0.11081,1.843151 -0.23468,2.478017 -0.12387,0.628043 -0.33248,1.112716 -0.62585,1.454041 -0.28685,0.334493 -0.69104,0.501745 -1.21259,0.501745 -0.21513,0 -0.4759,-0.03752 -0.78231,-0.11268 l 0.0978,-1.402844 c 0.0848,0.02737 0.17929,0.04094 0.28359,0.04094 0.37812,0 0.64215,-0.232111 0.7921,-0.696311 0.14994,-0.47103 0.24447,-1.204873 0.28358,-2.201545 l 0.0978,-2.908085 z m 6.70668,4.433812 c 0,0.02049 -0.01,0.163831 -0.0293,0.430075 h -3.98 c 0.0717,0.341314 0.24121,0.610971 0.5085,0.808925 0.26729,0.197977 0.59978,0.29696 0.99745,0.29696 0.27381,0 0.51502,-0.04094 0.72363,-0.122876 0.21514,-0.08873 0.41397,-0.225269 0.59652,-0.409595 l 0.81164,0.921582 c -0.49546,0.593909 -1.2191,0.890846 -2.17091,0.890846 -0.59325,0 -1.11805,-0.119444 -1.57439,-0.358376 -0.45636,-0.245763 -0.8084,-0.583666 -1.05612,-1.013733 -0.24774,-0.430077 -0.3716,-0.918175 -0.3716,-1.464287 0,-0.539297 0.1206,-1.023976 0.36182,-1.454047 0.24772,-0.436898 0.58347,-0.774804 1.00722,-1.013734 0.43027,-0.245757 0.90943,-0.368627 1.43749,-0.368627 0.51502,0 0.98115,0.116043 1.39839,0.348149 0.41722,0.232095 0.74318,0.566601 0.97788,1.003489 0.24121,0.430071 0.36182,0.93182 0.36182,1.505249 z m -2.7283,-1.648596 c -0.34552,0 -0.63564,0.102393 -0.87033,0.307191 -0.23469,0.204793 -0.37811,0.484681 -0.43026,0.839655 h 2.5914 c -0.0522,-0.348149 -0.19557,-0.624628 -0.43027,-0.829419 -0.23469,-0.211619 -0.52154,-0.317427 -0.86054,-0.317427 z m 7.91654,1.505238 c 0.61933,0.218441 0.92899,0.655342 0.92899,1.310701 0,0.498324 -0.17928,0.884026 -0.53784,1.157081 -0.35856,0.273055 -0.89313,0.409583 -1.60373,0.409583 h -2.80653 v -5.508981 h 2.68919 c 0.65844,0 1.17346,0.126287 1.54505,0.378871 0.3716,0.245757 0.5574,0.593906 0.5574,1.044454 0,0.273062 -0.0684,0.515403 -0.20535,0.72702 -0.13039,0.204801 -0.31945,0.365219 -0.56718,0.481271 z m -2.62074,-0.368635 h 1.15391 c 0.53458,0 0.80187,-0.197966 0.80187,-0.593898 0,-0.389114 -0.26729,-0.583671 -0.80187,-0.583671 h -1.15391 z m 1.28103,2.160599 c 0.56065,0 0.84099,-0.201388 0.84099,-0.60415 0,-0.211629 -0.0652,-0.365225 -0.19558,-0.460794 -0.13039,-0.102392 -0.33574,-0.153587 -0.61607,-0.153587 h -1.31037 v 1.218531 z m 3.17868,-2.437069 h 2.76742 v 1.279967 h -2.76742 z m -23.95336,13.065914 h -2.19046 v 5.81619 h -1.56463 v -5.81619 h -2.18068 v -1.35165 h 5.93577 z m 2.80654,5.89809 c -0.55413,0 -1.05286,-0.11947 -1.49616,-0.3584 -0.4368,-0.24574 -0.77906,-0.58366 -1.02679,-1.01372 -0.24773,-0.43007 -0.3716,-0.91818 -0.3716,-1.4643 0,-0.54611 0.12387,-1.03419 0.3716,-1.46428 0.24773,-0.43007 0.58999,-0.76456 1.02679,-1.00349 0.4433,-0.24575 0.94203,-0.36863 1.49616,-0.36863 0.55413,0 1.0496,0.12288 1.48639,0.36863 0.43679,0.23893 0.77905,0.57342 1.02678,1.00349 0.24774,0.43009 0.3716,0.91817 0.3716,1.46428 0,0.54612 -0.12386,1.03423 -0.3716,1.4643 -0.24773,0.43006 -0.58999,0.76798 -1.02678,1.01372 -0.43679,0.23893 -0.93226,0.3584 -1.48639,0.3584 z m 0,-1.31069 c 0.39116,0 0.7106,-0.13652 0.95833,-0.40959 0.25426,-0.27988 0.38138,-0.65194 0.38138,-1.11614 0,-0.4642 -0.12712,-0.83282 -0.38138,-1.10587 -0.24773,-0.2799 -0.56717,-0.41985 -0.95833,-0.41985 -0.39116,0 -0.71386,0.13995 -0.9681,0.41985 -0.25426,0.27305 -0.38138,0.64167 -0.38138,1.10587 0,0.4642 0.12712,0.83626 0.38138,1.11614 0.25424,0.27307 0.57694,0.40959 0.9681,0.40959 z m 8.90367,-4.28021 v 5.509 h -1.52551 v -4.19832 h -1.6624 l -0.0488,0.97278 c -0.0261,0.72362 -0.0913,1.32435 -0.19557,1.8022 -0.10431,0.47785 -0.27382,0.85331 -0.50851,1.12637 -0.23469,0.27306 -0.56065,0.40959 -0.97789,0.40959 -0.22165,0 -0.48568,-0.0409 -0.79208,-0.12288 l 0.0782,-1.31068 c 0.1043,0.0137 0.17927,0.0205 0.22491,0.0205 0.22817,0 0.39767,-0.0853 0.5085,-0.25599 0.11734,-0.1775 0.19558,-0.39936 0.23469,-0.66559 0.0392,-0.27306 0.0685,-0.63144 0.088,-1.07517 l 0.0782,-2.21177 z m 3.97023,5.5909 c -0.56067,0 -1.06591,-0.11947 -1.51573,-0.3584 -0.44331,-0.24574 -0.7921,-0.58366 -1.04634,-1.01372 -0.24773,-0.43007 -0.3716,-0.91818 -0.3716,-1.4643 0,-0.54611 0.12387,-1.03419 0.3716,-1.46428 0.25424,-0.43007 0.60303,-0.76456 1.04634,-1.00349 0.44982,-0.24575 0.95506,-0.36863 1.51573,-0.36863 0.55413,0 1.03655,0.12288 1.44727,0.36863 0.41722,0.23893 0.72037,0.58368 0.90943,1.03423 l -1.18324,0.66557 c -0.27381,-0.50516 -0.66822,-0.75775 -1.18324,-0.75775 -0.39768,0 -0.72691,0.13654 -0.98767,0.4096 -0.26077,0.27306 -0.39116,0.6451 -0.39116,1.11612 0,0.47103 0.13039,0.84308 0.39116,1.11614 0.26076,0.27307 0.58999,0.40959 0.98767,0.40959 0.52153,0 0.91595,-0.25258 1.18324,-0.75772 l 1.18324,0.6758 c -0.18906,0.4369 -0.49221,0.77823 -0.90943,1.02399 -0.41072,0.24574 -0.89314,0.36862 -1.44727,0.36862 z m 7.68455,-4.28022 h -1.77975 v 4.19832 h -1.51572 v -4.19832 h -1.77976 v -1.31068 h 5.07523 z m 3.05808,4.28022 c -0.55413,0 -1.05286,-0.11947 -1.49616,-0.3584 -0.4368,-0.24574 -0.77906,-0.58366 -1.02679,-1.01372 -0.24773,-0.43007 -0.3716,-0.91818 -0.3716,-1.4643 0,-0.54611 0.12387,-1.03419 0.3716,-1.46428 0.24773,-0.43007 0.58999,-0.76456 1.02679,-1.00349 0.4433,-0.24575 0.94203,-0.36863 1.49616,-0.36863 0.55413,0 1.0496,0.12288 1.48639,0.36863 0.43679,0.23893 0.77905,0.57342 1.02678,1.00349 0.24774,0.43009 0.3716,0.91817 0.3716,1.46428 0,0.54612 -0.12386,1.03423 -0.3716,1.4643 -0.24773,0.43006 -0.58999,0.76798 -1.02678,1.01372 -0.43679,0.23893 -0.93226,0.3584 -1.48639,0.3584 z m 0,-1.31069 c 0.39116,0 0.7106,-0.13652 0.95834,-0.40959 0.25424,-0.27988 0.38137,-0.65194 0.38137,-1.11614 0,-0.4642 -0.12713,-0.83282 -0.38137,-1.10587 -0.24774,-0.2799 -0.56718,-0.41985 -0.95834,-0.41985 -0.39116,0 -0.71386,0.13995 -0.96811,0.41985 -0.25425,0.27305 -0.38137,0.64167 -0.38137,1.10587 0,0.4642 0.12712,0.83626 0.38137,1.11614 0.25425,0.27307 0.57695,0.40959 0.96811,0.40959 z m 3.93383,-4.28021 h 1.51572 v 3.27671 l 2.56207,-3.27671 h 1.39838 v 5.509 h -1.51573 v -3.27674 l -2.55229,3.27674 h -1.40815 z m 2.64029,-0.5939 c -1.14739,0 -1.72434,-0.52906 -1.73086,-1.58717 h 0.99745 c 0.007,0.23892 0.0684,0.42666 0.1858,0.56319 0.12386,0.12971 0.30313,0.19455 0.53783,0.19455 0.23469,0 0.41398,-0.0649 0.53784,-0.19455 0.13039,-0.13653 0.19558,-0.32427 0.19558,-0.56319 h 1.017 c -0.007,1.05811 -0.58673,1.58717 -1.74064,1.58717 z"
       id="path70" />
    <path
       inkscape:connector-curvature="0"
       style="fill:#52a4df;stroke-width:0.57525921"
       d="m 89.911054,387.68868 v 2.96741 h -1.501289 v -1.55334 h -4.944269 v 1.55334 H 81.9642 l 0.01001,-2.96741 h 0.280242 c 0.420363,-0.0143 0.717286,-0.3428 0.890769,-0.98556 0.173483,-0.64276 0.280242,-1.56048 0.320276,-2.75315 l 0.08007,-2.34608 h 5.384649 v 6.08479 z m -5.014323,-3.57803 c -0.03336,0.89272 -0.103422,1.64261 -0.210181,2.24966 -0.106759,0.59991 -0.270233,1.0427 -0.490423,1.32837 h 3.132703 v -4.67072 h -2.402073 z m 8.439503,5.07781 c -0.56715,0 -1.07759,-0.12499 -1.53132,-0.37495 -0.44705,-0.2571 -0.79735,-0.61062 -1.05091,-1.06055 -0.25355,-0.44993 -0.38033,-0.96057 -0.38033,-1.53191 0,-0.57134 0.12678,-1.08198 0.38033,-1.53191 0.25356,-0.44993 0.60386,-0.79988 1.05091,-1.04984 0.45373,-0.25711 0.96417,-0.38566 1.53132,-0.38566 0.56716,0 1.07426,0.12855 1.52131,0.38566 0.44706,0.24996 0.79736,0.59991 1.05091,1.04984 0.25356,0.44993 0.38033,0.96057 0.38033,1.53191 0,0.57134 -0.12677,1.08198 -0.38033,1.53191 -0.25355,0.44993 -0.60385,0.80345 -1.05091,1.06055 -0.44705,0.24996 -0.95415,0.37495 -1.52131,0.37495 z m 0,-1.37122 c 0.40035,0 0.7273,-0.14284 0.98085,-0.42851 0.26022,-0.29282 0.39033,-0.68204 0.39033,-1.16768 0,-0.48565 -0.13011,-0.8713 -0.39033,-1.15697 -0.25355,-0.29281 -0.5805,-0.43922 -0.98085,-0.43922 -0.40034,0 -0.73062,0.14641 -0.99085,0.43922 -0.26023,0.28567 -0.39034,0.67132 -0.39034,1.15697 0,0.48564 0.13011,0.87486 0.39034,1.16768 0.26023,0.28567 0.59051,0.42851 0.99085,0.42851 z m 9.112876,-4.47789 v 5.7634 h -1.56135 v -4.39219 h -1.701476 l -0.05,1.01771 c -0.0267,0.75702 -0.0934,1.3855 -0.20017,1.88543 -0.10676,0.49992 -0.28024,0.89271 -0.52045,1.17839 -0.24021,0.28567 -0.57382,0.4285 -1.00086,0.4285 -0.22686,0 -0.4971,-0.0429 -0.8107,-0.12855 l 0.0801,-1.37122 c 0.10676,0.0143 0.18349,0.0214 0.2302,0.0214 0.23353,0 0.40701,-0.0893 0.52044,-0.26781 0.12011,-0.18569 0.20018,-0.41779 0.24021,-0.69633 0.04,-0.28566 0.0701,-0.66061 0.0901,-1.12483 l 0.0801,-2.31393 z m 5.81502,1.37121 h -2.76239 v 4.39219 h -1.55134 v -5.7634 h 4.31373 z m 3.12491,4.4779 c -0.56716,0 -1.0776,-0.12499 -1.53132,-0.37495 -0.44705,-0.2571 -0.79736,-0.61062 -1.0509,-1.06055 -0.25356,-0.44993 -0.38033,-0.96057 -0.38033,-1.53191 0,-0.57134 0.12677,-1.08198 0.38033,-1.53191 0.25354,-0.44993 0.60385,-0.79988 1.0509,-1.04984 0.45372,-0.25711 0.96416,-0.38566 1.53132,-0.38566 0.56716,0 1.07427,0.12855 1.52131,0.38566 0.44705,0.24996 0.79736,0.59991 1.05091,1.04984 0.25355,0.44993 0.38033,0.96057 0.38033,1.53191 0,0.57134 -0.12678,1.08198 -0.38033,1.53191 -0.25355,0.44993 -0.60386,0.80345 -1.05091,1.06055 -0.44704,0.24996 -0.95415,0.37495 -1.52131,0.37495 z m 0,-1.37122 c 0.40035,0 0.7273,-0.14284 0.98085,-0.42851 0.26022,-0.29282 0.39033,-0.68204 0.39033,-1.16768 0,-0.48565 -0.13011,-0.8713 -0.39033,-1.15697 -0.25355,-0.29281 -0.5805,-0.43922 -0.98085,-0.43922 -0.40034,0 -0.73063,0.14641 -0.99085,0.43922 -0.26023,0.28567 -0.39034,0.67132 -0.39034,1.15697 0,0.48564 0.13011,0.87486 0.39034,1.16768 0.26022,0.28567 0.59051,0.42851 0.99085,0.42851 z m 7.19899,-4.5636 c 0.50043,0 0.95416,0.12498 1.36118,0.37494 0.41369,0.24283 0.7373,0.5892 0.97083,1.03913 0.23354,0.4428 0.35031,0.96057 0.35031,1.55334 0,0.59276 -0.11677,1.11412 -0.35031,1.56405 -0.23353,0.44279 -0.55714,0.78916 -0.97083,1.03913 -0.40702,0.24281 -0.86075,0.36423 -1.36118,0.36423 -0.68725,0 -1.22772,-0.23211 -1.62139,-0.69633 v 2.68888 h -1.56135 v -7.84166 h 1.49128 v 0.66418 c 0.387,-0.49992 0.95082,-0.74989 1.69146,-0.74989 z m -0.27023,4.5636 c 0.40035,0 0.72729,-0.14284 0.98084,-0.42851 0.26023,-0.29282 0.39034,-0.68204 0.39034,-1.16768 0,-0.48565 -0.13011,-0.8713 -0.39034,-1.15697 -0.25355,-0.29281 -0.58049,-0.43922 -0.98084,-0.43922 -0.40035,0 -0.73063,0.14641 -0.99086,0.43922 -0.25355,0.28567 -0.38033,0.67132 -0.38033,1.15697 0,0.48564 0.12678,0.87486 0.38033,1.16768 0.26023,0.28567 0.59051,0.42851 0.99086,0.42851 z m 9.29524,-4.47789 -2.43209,6.11692 c -0.24689,0.66419 -0.55382,1.13197 -0.9208,1.40336 -0.36031,0.27139 -0.79735,0.40708 -1.31113,0.40708 -0.28025,0 -0.55715,-0.0464 -0.83072,-0.13926 -0.27357,-0.0928 -0.4971,-0.2214 -0.67058,-0.38566 l 0.57049,-1.1891 c 0.12011,0.11426 0.25689,0.20354 0.41036,0.26781 0.16014,0.0643 0.31694,0.0964 0.4704,0.0964 0.21353,0 0.38701,-0.0571 0.52045,-0.17141 0.13345,-0.10712 0.25356,-0.28924 0.36032,-0.54635 l 0.02,-0.0535 -2.33201,-5.80625 h 1.61139 l 1.5113,3.91012 1.52131,-3.91012 z m 3.12492,3.57802 h -0.81069 v 2.18538 h -1.56135 v -5.7634 h 1.56135 v 2.23894 h 0.84072 l 1.46126,-2.23894 h 1.66143 l -1.88162,2.76386 2.01173,2.99954 h -1.84159 z m 6.40553,2.27109 c -0.56716,0 -1.0776,-0.12499 -1.53132,-0.37495 -0.44705,-0.2571 -0.79736,-0.61062 -1.05091,-1.06055 -0.25355,-0.44993 -0.38032,-0.96057 -0.38032,-1.53191 0,-0.57134 0.12677,-1.08198 0.38032,-1.53191 0.25355,-0.44993 0.60386,-0.79988 1.05091,-1.04984 0.45372,-0.25711 0.96416,-0.38566 1.53132,-0.38566 0.56715,0 1.07426,0.12855 1.52132,0.38566 0.44704,0.24996 0.79735,0.59991 1.0509,1.04984 0.25355,0.44993 0.38033,0.96057 0.38033,1.53191 0,0.57134 -0.12678,1.08198 -0.38033,1.53191 -0.25355,0.44993 -0.60386,0.80345 -1.0509,1.06055 -0.44706,0.24996 -0.95417,0.37495 -1.52132,0.37495 z m 0,-1.37122 c 0.40035,0 0.72729,-0.14284 0.98085,-0.42851 0.26022,-0.29282 0.39033,-0.68204 0.39033,-1.16768 0,-0.48565 -0.13011,-0.8713 -0.39033,-1.15697 -0.25356,-0.29281 -0.5805,-0.43922 -0.98085,-0.43922 -0.40035,0 -0.73063,0.14641 -0.99086,0.43922 -0.26022,0.28567 -0.39033,0.67132 -0.39033,1.15697 0,0.48564 0.13011,0.87486 0.39033,1.16768 0.26023,0.28567 0.59051,0.42851 0.99086,0.42851 z m 8.14036,-1.72474 c 0.63387,0.22854 0.95082,0.6856 0.95082,1.37122 0,0.52135 -0.18349,0.92485 -0.55048,1.21053 -0.36698,0.28567 -0.91412,0.4285 -1.64142,0.4285 h -2.87247 v -5.7634 h 2.75237 c 0.67392,0 1.20104,0.13212 1.58137,0.39636 0.38033,0.2571 0.57049,0.62133 0.57049,1.0927 0,0.28567 -0.0701,0.5392 -0.21018,0.76059 -0.13345,0.21425 -0.32695,0.38209 -0.5805,0.5035 z m -2.68232,-0.38566 h 1.18102 c 0.54714,0 0.82071,-0.20711 0.82071,-0.62133 0,-0.40708 -0.27357,-0.61063 -0.82071,-0.61063 h -1.18102 z m 1.31113,2.26037 c 0.57383,0 0.86075,-0.21068 0.86075,-0.63204 0,-0.2214 -0.0667,-0.38209 -0.20018,-0.48207 -0.13344,-0.10713 -0.34363,-0.1607 -0.63054,-0.1607 h -1.34116 v 1.27481 z m 6.00574,1.22125 c -0.56715,0 -1.07759,-0.12499 -1.53132,-0.37495 -0.44705,-0.2571 -0.79735,-0.61062 -1.05091,-1.06055 -0.25355,-0.44993 -0.38033,-0.96057 -0.38033,-1.53191 0,-0.57134 0.12678,-1.08198 0.38033,-1.53191 0.25356,-0.44993 0.60386,-0.79988 1.05091,-1.04984 0.45373,-0.25711 0.96417,-0.38566 1.53132,-0.38566 0.56716,0 1.07426,0.12855 1.52131,0.38566 0.44706,0.24996 0.79736,0.59991 1.05091,1.04984 0.25356,0.44993 0.38033,0.96057 0.38033,1.53191 0,0.57134 -0.12677,1.08198 -0.38033,1.53191 -0.25355,0.44993 -0.60385,0.80345 -1.05091,1.06055 -0.44705,0.24996 -0.95415,0.37495 -1.52131,0.37495 z m 0,-1.37122 c 0.40035,0 0.7273,-0.14284 0.98085,-0.42851 0.26022,-0.29282 0.39033,-0.68204 0.39033,-1.16768 0,-0.48565 -0.13011,-0.8713 -0.39033,-1.15697 -0.25355,-0.29281 -0.5805,-0.43922 -0.98085,-0.43922 -0.40034,0 -0.73063,0.14641 -0.99085,0.43922 -0.26023,0.28567 -0.39034,0.67132 -0.39034,1.15697 0,0.48564 0.13011,0.87486 0.39034,1.16768 0.26022,0.28567 0.59051,0.42851 0.99085,0.42851 z"
       id="path36-8" />
    <circle
       style="fill:#52a4df"
       cx="226.6524"
       cy="106.54961"
       r="6.4335899"
       id="circle60" />
    <circle
       style="fill:#52a4df"
       cx="333.59653"
       cy="126.50771"
       r="6.4335899"
       id="circle60-0" />
    <circle
       style="fill:#52a4df"
       cx="412.61069"
       cy="111.33175"
       r="6.4335899"
       id="circle60-8" />
    <circle
       style="fill:#52a4df"
       cx="386.26675"
       cy="225.46231"
       r="6.4335899"
       id="circle60-3" />
    <circle
       style="fill:#52a4df"
       cx="273.7374"
       cy="214.26035"
       r="6.4335899"
       id="circle60-7" />
    <circle
       style="fill:#52a4df"
       cx="194.73834"
       cy="228.67599"
       r="6.4335899"
       id="circle60-9" />
    <circle
       style="fill:#52a4df"
       cx="106.94163"
       cy="239.02954"
       r="6.4335899"
       id="circle60-4" />
    <circle
       style="fill:#52a4df"
       cx="50.788979"
       cy="298.29385"
       r="6.4335899"
       id="circle60-48" />
    <circle
       style="fill:#52a4df"
       cx="152.36694"
       cy="326.1781"
       r="6.4335899"
       id="circle60-31" />
    <circle
       style="fill:#52a4df"
       cx="222.01105"
       cy="368.1387"
       r="6.4335899"
       id="circle60-5" />
    <circle
       style="fill:#52a4df"
       cx="314.75851"
       cy="320.7991"
       r="6.4335899"
       id="circle60-94" />
    <circle
       style="fill:#52a4df"
       cx="401.66412"
       cy="358.70804"
       r="6.4335899"
       id="circle60-53" />
    <circle
       style="fill:#52a4df"
       cx="374.11166"
       cy="458.49365"
       r="6.4335899"
       id="circle60-2" />
    <circle
       style="fill:#52a4df"
       cx="495.87207"
       cy="450.59317"
       r="6.4335899"
       id="circle60-89" />
    <circle
       style="fill:#52a4df"
       cx="260.11862"
       cy="451.7218"
       r="6.4335899"
       id="circle60-00" />
    <circle
       style="fill:#52a4df"
       cx="36.647121"
       cy="488.83389"
       r="6.4335899"
       id="circle60-92" />
    <circle
       style="fill:#52a4df"
       cx="123.35403"
       cy="473.16605"
       r="6.4335899"
       id="circle60-6" />
    <text
       xml:space="preserve"
       style="font-style:normal;font-weight:normal;font-size:40px;line-height:1.25;font-family:sans-serif;letter-spacing:0px;word-spacing:0px;fill:#000000;fill-opacity:1;stroke:none"
       x="409.31842"
       y="90.322861"
       id="text1621"><tspan
         sodipodi:role="line"
         id="tspan1619"
         x="409.31842"
         y="126.81607" /></text>
    <circle
       style="fill:#52a4df"
       cx="117.92828"
       cy="396.86337"
       r="6.4335899"
       id="circle60-5-9" />
    <text
       xml:space="preserve"
       style="font-style:normal;font-variant:normal;font-weight:bold;font-stretch:normal;font-size:9.33333302px;line-height:1.25;font-family:Gautami;-inkscape-font-specification:'Gautami, Bold';font-variant-ligatures:normal;font-variant-caps:normal;font-variant-numeric:normal;font-feature-settings:normal;text-align:start;letter-spacing:0px;word-spacing:0px;writing-mode:lr-tb;text-anchor:start;fill:#52a4df;fill-opacity:1;stroke:none"
       x="209.49406"
       y="91.439697"
       id="text68"><tspan
         sodipodi:role="line"
         id="tspan66"
         x="209.49406"
         y="91.439697">Данков</tspan></text>
    <text
       xml:space="preserve"
       style="font-style:normal;font-variant:normal;font-weight:bold;font-stretch:normal;font-size:9.33333302px;line-height:1.25;font-family:Gautami;-inkscape-font-specification:'Gautami, Bold';font-variant-ligatures:normal;font-variant-caps:normal;font-variant-numeric:normal;font-feature-settings:normal;text-align:start;letter-spacing:0px;word-spacing:0px;writing-mode:lr-tb;text-anchor:start;fill:#52a4df;fill-opacity:1;stroke:none"
       x="386.57306"
       y="99.477005"
       id="text68-3"><tspan
         sodipodi:role="line"
         id="tspan110"
         x="386.57306"
         y="99.477005">Чаплыгин</tspan></text>
    <text
       xml:space="preserve"
       style="font-style:normal;font-variant:normal;font-weight:bold;font-stretch:normal;font-size:9.33333302px;line-height:1.25;font-family:Gautami;-inkscape-font-specification:'Gautami, Bold';font-variant-ligatures:normal;font-variant-caps:normal;font-variant-numeric:normal;font-feature-settings:normal;text-align:start;letter-spacing:0px;word-spacing:0px;writing-mode:lr-tb;text-anchor:start;fill:#52a4df;fill-opacity:1;stroke:none"
       x="248.74767"
       y="198.19591"
       id="text68-3-5"><tspan
         sodipodi:role="line"
         id="tspan130"
         x="248.74767"
         y="198.19591">Лебедянь</tspan></text>
    <text
       xml:space="preserve"
       style="font-style:normal;font-variant:normal;font-weight:bold;font-stretch:normal;font-size:9.33333302px;line-height:1.25;font-family:Gautami;-inkscape-font-specification:'Gautami, Bold';font-variant-ligatures:normal;font-variant-caps:normal;font-variant-numeric:normal;font-feature-settings:normal;text-align:start;letter-spacing:0px;word-spacing:0px;writing-mode:lr-tb;text-anchor:start;fill:#52a4df;fill-opacity:1;stroke:none"
       x="365.87912"
       y="211.74171"
       id="text68-3-8"><tspan
         sodipodi:role="line"
         id="tspan150"
         x="365.87912"
         y="211.74171">Доброе</tspan></text>
    <text
       xml:space="preserve"
       style="font-style:normal;font-variant:normal;font-weight:bold;font-stretch:normal;font-size:9.33333302px;line-height:1.25;font-family:Gautami;-inkscape-font-specification:'Gautami, Bold';font-variant-ligatures:normal;font-variant-caps:normal;font-variant-numeric:normal;font-feature-settings:normal;text-align:start;letter-spacing:0px;word-spacing:0px;writing-mode:lr-tb;text-anchor:start;fill:#52a4df;fill-opacity:1;stroke:none"
       x="170.63681"
       y="215.81168"
       id="text68-6"><tspan
         sodipodi:role="line"
         id="tspan170"
         x="170.63681"
         y="215.81168">Красное</tspan></text>
    <text
       xml:space="preserve"
       style="font-style:normal;font-variant:normal;font-weight:bold;font-stretch:normal;font-size:9.33333302px;line-height:1.25;font-family:Gautami;-inkscape-font-specification:'Gautami, Bold';font-variant-ligatures:normal;font-variant-caps:normal;font-variant-numeric:normal;font-feature-settings:normal;text-align:start;letter-spacing:0px;word-spacing:0px;writing-mode:lr-tb;text-anchor:start;fill:#52a4df;fill-opacity:1;stroke:none"
       x="80.904022"
       y="226.81438"
       id="text68-6-1"><tspan
         sodipodi:role="line"
         id="tspan190"
         x="80.904022"
         y="226.81438">Становое</tspan></text>
    <text
       xml:space="preserve"
       style="font-style:normal;font-variant:normal;font-weight:bold;font-stretch:normal;font-size:9.33333302px;line-height:1.25;font-family:Gautami;-inkscape-font-specification:'Gautami, Bold';font-variant-ligatures:normal;font-variant-caps:normal;font-variant-numeric:normal;font-feature-settings:normal;text-align:start;letter-spacing:0px;word-spacing:0px;writing-mode:lr-tb;text-anchor:start;fill:#52a4df;fill-opacity:1;stroke:none"
       x="19.540461"
       y="313.78842"
       id="text68-6-1-1"><tspan
         sodipodi:role="line"
         id="tspan210"
         x="19.540461"
         y="313.78842">Измалково</tspan></text>
    <text
       xml:space="preserve"
       style="font-style:normal;font-variant:normal;font-weight:bold;font-stretch:normal;font-size:9.33333302px;line-height:1.25;font-family:Gautami;-inkscape-font-specification:'Gautami, Bold';font-variant-ligatures:normal;font-variant-caps:normal;font-variant-numeric:normal;font-feature-settings:normal;text-align:start;letter-spacing:0px;word-spacing:0px;writing-mode:lr-tb;text-anchor:start;fill:#52a4df;fill-opacity:1;stroke:none"
       x="138.992"
       y="315.31601"
       id="text68-6-1-1-4"><tspan
         sodipodi:role="line"
         id="tspan230"
         x="138.992"
         y="315.31601">Елец</tspan></text>
    <text
       xml:space="preserve"
       style="font-style:normal;font-variant:normal;font-weight:bold;font-stretch:normal;font-size:9.33333302px;line-height:1.25;font-family:Gautami;-inkscape-font-specification:'Gautami, Bold';font-variant-ligatures:normal;font-variant-caps:normal;font-variant-numeric:normal;font-feature-settings:normal;text-align:start;letter-spacing:0px;word-spacing:0px;writing-mode:lr-tb;text-anchor:start;fill:#52a4df;fill-opacity:1;stroke:none"
       x="202.67455"
       y="356.99335"
       id="text68-6-1-1-4-3"><tspan
         sodipodi:role="line"
         id="tspan250"
         x="202.67455"
         y="356.99335">Задонск</tspan></text>
    <text
       xml:space="preserve"
       style="font-style:normal;font-variant:normal;font-weight:bold;font-stretch:normal;font-size:9.33333302px;line-height:1.25;font-family:Gautami;-inkscape-font-specification:'Gautami, Bold';font-variant-ligatures:normal;font-variant-caps:normal;font-variant-numeric:normal;font-feature-settings:normal;text-align:start;letter-spacing:0px;word-spacing:0px;writing-mode:lr-tb;text-anchor:start;fill:#52a4df;fill-opacity:1;stroke:none"
       x="294.84631"
       y="309.25064"
       id="text68-6-1-1-4-3-8"><tspan
         sodipodi:role="line"
         id="tspan270"
         x="294.84631"
         y="309.25064">Липецк</tspan></text>
    <text
       xml:space="preserve"
       style="font-style:normal;font-variant:normal;font-weight:bold;font-stretch:normal;font-size:9.33333302px;line-height:1.25;font-family:Gautami;-inkscape-font-specification:'Gautami, Bold';font-variant-ligatures:normal;font-variant-caps:normal;font-variant-numeric:normal;font-feature-settings:normal;text-align:start;letter-spacing:0px;word-spacing:0px;writing-mode:lr-tb;text-anchor:start;fill:#52a4df;fill-opacity:1;stroke:none"
       x="386.05811"
       y="345.83798"
       id="text68-6-1-1-4-3-8-4"><tspan
         sodipodi:role="line"
         id="tspan290"
         x="386.05811"
         y="345.83798">Грязи</tspan></text>
    <text
       xml:space="preserve"
       style="font-style:normal;font-variant:normal;font-weight:bold;font-stretch:normal;font-size:9.33333302px;line-height:1.25;font-family:Gautami;-inkscape-font-specification:'Gautami, Bold';font-variant-ligatures:normal;font-variant-caps:normal;font-variant-numeric:normal;font-feature-settings:normal;text-align:start;letter-spacing:0px;word-spacing:0px;writing-mode:lr-tb;text-anchor:start;fill:#52a4df;fill-opacity:1;stroke:none"
       x="354.95248"
       y="445.13425"
       id="text68-6-1-1-4-3-8-4-4"><tspan
         sodipodi:role="line"
         id="tspan310"
         x="354.95248"
         y="445.13425">Усмань</tspan></text>
    <text
       xml:space="preserve"
       style="font-style:normal;font-variant:normal;font-weight:bold;font-stretch:normal;font-size:9.33333302px;line-height:1.25;font-family:Gautami;-inkscape-font-specification:'Gautami, Bold';font-variant-ligatures:normal;font-variant-caps:normal;font-variant-numeric:normal;font-feature-settings:normal;text-align:start;letter-spacing:0px;word-spacing:0px;writing-mode:lr-tb;text-anchor:start;fill:#52a4df;fill-opacity:1;stroke:none"
       x="472.15558"
       y="438.83334"
       id="text68-6-1-1-4-3-8-4-4-2"><tspan
         sodipodi:role="line"
         id="tspan330"
         x="472.15558"
         y="438.83334">Добринка</tspan></text>
    <text
       xml:space="preserve"
       style="font-style:normal;font-variant:normal;font-weight:bold;font-stretch:normal;font-size:9.33333302px;line-height:1.25;font-family:Gautami;-inkscape-font-specification:'Gautami, Bold';font-variant-ligatures:normal;font-variant-caps:normal;font-variant-numeric:normal;font-feature-settings:normal;text-align:start;letter-spacing:0px;word-spacing:0px;writing-mode:lr-tb;text-anchor:start;fill:#52a4df;fill-opacity:1;stroke:none"
       x="237.09584"
       y="440.42697"
       id="text68-6-1-1-4-3-8-4-4-8"><tspan
         sodipodi:role="line"
         id="tspan352"
         x="237.09584"
         y="440.42697">Хлевоное</tspan></text>
    <text
       xml:space="preserve"
       style="font-style:normal;font-variant:normal;font-weight:bold;font-stretch:normal;font-size:9.33333302px;line-height:1.25;font-family:Gautami;-inkscape-font-specification:'Gautami, Bold';font-variant-ligatures:normal;font-variant-caps:normal;font-variant-numeric:normal;font-feature-settings:normal;text-align:start;letter-spacing:0px;word-spacing:0px;writing-mode:lr-tb;text-anchor:start;fill:#52a4df;fill-opacity:1;stroke:none"
       x="100.02011"
       y="461.92953"
       id="text68-6-1-1-4-3-8-4-4-8-6"><tspan
         sodipodi:role="line"
         id="tspan372"
         x="100.02011"
         y="461.92953">Тербуны</tspan></text>
    <text
       xml:space="preserve"
       style="font-style:normal;font-variant:normal;font-weight:bold;font-stretch:normal;font-size:9.33333302px;line-height:1.25;font-family:Gautami;-inkscape-font-specification:'Gautami, Bold';font-variant-ligatures:normal;font-variant-caps:normal;font-variant-numeric:normal;font-feature-settings:normal;text-align:start;letter-spacing:0px;word-spacing:0px;writing-mode:lr-tb;text-anchor:start;fill:#52a4df;fill-opacity:1;stroke:none"
       x="18.162453"
       y="479.57034"
       id="text68-6-1-1-4-3-8-4-4-8-6-5"><tspan
         sodipodi:role="line"
         id="tspan392"
         x="18.162453"
         y="479.57034">Волово</tspan></text>
  </g>
</svg>
