<svg width="23" height="18" viewBox="0 0 23 18" fill="none" xmlns="http://www.w3.org/2000/svg">
<path d="M5.82168 10.9002C5.82168 10.4327 5.65522 10.0325 5.3223 9.69957C4.98939 9.36665 4.58918 9.2002 4.12168 9.2002C3.65418 9.2002 3.25397 9.36665 2.92105 9.69957C2.58814 10.0325 2.42168 10.4327 2.42168 10.9002C2.42168 11.3677 2.58814 11.7679 2.92105 12.1008C3.25397 12.4337 3.65418 12.6002 4.12168 12.6002C4.58918 12.6002 4.98939 12.4337 5.3223 12.1008C5.65522 11.7679 5.82168 11.3677 5.82168 10.9002ZM6.20418 7.5002H16.9992L16.0536 3.70707C16.0394 3.6504 15.9898 3.58842 15.9048 3.52113C15.8198 3.45384 15.7454 3.4202 15.6817 3.4202H7.52168C7.45793 3.4202 7.38355 3.45384 7.29855 3.52113C7.21355 3.58842 7.16397 3.6504 7.1498 3.70707L6.20418 7.5002ZM20.7817 10.9002C20.7817 10.4327 20.6152 10.0325 20.2823 9.69957C19.9494 9.36665 19.5492 9.2002 19.0817 9.2002C18.6142 9.2002 18.214 9.36665 17.8811 9.69957C17.5481 10.0325 17.3817 10.4327 17.3817 10.9002C17.3817 11.3677 17.5481 11.7679 17.8811 12.1008C18.214 12.4337 18.6142 12.6002 19.0817 12.6002C19.5492 12.6002 19.9494 12.4337 20.2823 12.1008C20.6152 11.7679 20.7817 11.3677 20.7817 10.9002ZM22.4817 9.8802V13.9602C22.4817 14.0594 22.4498 14.1408 22.3861 14.2046C22.3223 14.2683 22.2408 14.3002 22.1417 14.3002H21.1217V15.6602C21.1217 16.2269 20.9233 16.7085 20.5267 17.1052C20.13 17.5019 19.6483 17.7002 19.0817 17.7002C18.515 17.7002 18.0333 17.5019 17.6367 17.1052C17.24 16.7085 17.0417 16.2269 17.0417 15.6602V14.3002H6.16168V15.6602C6.16168 16.2269 5.96335 16.7085 5.56668 17.1052C5.17001 17.5019 4.68835 17.7002 4.12168 17.7002C3.55501 17.7002 3.07335 17.5019 2.67668 17.1052C2.28001 16.7085 2.08168 16.2269 2.08168 15.6602V14.3002H1.06168C0.962513 14.3002 0.881055 14.2683 0.817305 14.2046C0.753555 14.1408 0.72168 14.0594 0.72168 13.9602V9.8802C0.72168 9.22145 0.953659 8.66009 1.41762 8.19613C1.88158 7.73217 2.44293 7.5002 3.10168 7.5002H3.39918L4.5148 3.04832C4.67772 2.38249 5.04605 1.82467 5.6198 1.37488C6.19355 0.925091 6.82751 0.700195 7.52168 0.700195H15.6817C16.3758 0.700195 17.0098 0.925091 17.5836 1.37488C18.1573 1.82467 18.5256 2.38249 18.6886 3.04832L19.8042 7.5002H20.1017C20.7604 7.5002 21.3218 7.73217 21.7857 8.19613C22.2497 8.66009 22.4817 9.22145 22.4817 9.8802Z" fill="#72898B"/>
</svg>
