<svg width="17" height="21" viewBox="0 0 17 21" fill="none" xmlns="http://www.w3.org/2000/svg">
<path d="M0.607422 14.6964C0.607422 16.6249 2.17617 18.1937 4.10463 18.1937L2.60583 19.6925V20.1921H14.5963V19.6925L13.0975 18.1937C15.0259 18.1937 16.5947 16.6249 16.5947 14.6964V4.20482C16.5947 0.707609 13.0175 0.208008 8.60104 0.208008C4.18457 0.208008 0.607422 0.707609 0.607422 4.20482V14.6964ZM8.60104 16.1952C7.50192 16.1952 6.60264 15.296 6.60264 14.1968C6.60264 13.0977 7.50192 12.1984 8.60104 12.1984C9.70016 12.1984 10.5994 13.0977 10.5994 14.1968C10.5994 15.296 9.70016 16.1952 8.60104 16.1952ZM14.5963 9.20083H2.60583V4.20482H14.5963V9.20083Z" fill="#72898B"/>
</svg>
