<svg width="134" height="177" viewBox="0 0 134 177" fill="none" xmlns="http://www.w3.org/2000/svg">
<path d="M0.989746 48.7432L26.7873 89.2881L20.0729 97.0445L9.47113 98.8073L0.989746 108.327L13.8532 114.673L9.47113 132.301L38.0958 147.743L53.2916 141.82L51.1712 135.474L61.4196 132.653L61.773 155.218L92.518 162.269L94.2849 170.378H100.999L112.308 176.019L115.347 157.474H123.122L128.21 146.968L129.483 144.288L122.91 129.057L112.308 126.66V116.577H119.8L116.761 103.673L123.828 92.1086L112.308 89.9932L132.522 70.7432L115.842 61.7881H110.188L103.332 52.9035L109.693 41.6214L96.0519 24.6983V11.0188L78.5944 13.6278L62.8331 11.0188L48.9095 4.67267L34.3499 1.64062L29.6144 13.6278L16.5389 22.0893L10.5313 39.7175L10.4606 39.647L10.8847 42.7496L0.989746 48.7432Z" stroke="#DADADA" stroke-width="1.32" stroke-miterlimit="10" stroke-linecap="round" stroke-linejoin="round"/>
</svg>
