<svg width="21" height="21" viewBox="0 0 21 21" fill="none" xmlns="http://www.w3.org/2000/svg">
<path d="M10.4111 0.208008C7.76104 0.208008 5.21949 1.26075 3.34559 3.13465C1.47169 5.00855 0.418945 7.5501 0.418945 10.2002C0.418945 12.8503 1.47169 15.3918 3.34559 17.2657C5.21949 19.1396 7.76104 20.1924 10.4111 20.1924C13.0612 20.1924 15.6028 19.1396 17.4767 17.2657C19.3506 15.3918 20.4033 12.8503 20.4033 10.2002C20.4033 7.5501 19.3506 5.00855 17.4767 3.13465C15.6028 1.26075 13.0612 0.208008 10.4111 0.208008V0.208008ZM10.4111 18.9434C9.22172 18.9451 8.04459 18.7028 6.95259 18.2314L11.5028 13.1129C11.6039 12.9984 11.6599 12.851 11.6602 12.6982V10.8247C11.6602 10.6591 11.5944 10.5002 11.4772 10.3831C11.3601 10.266 11.2013 10.2002 11.0356 10.2002C8.83112 10.2002 6.50419 7.90824 6.48171 7.88451C6.4236 7.82655 6.35465 7.78061 6.27878 7.74932C6.20291 7.71803 6.12162 7.702 6.03955 7.70215H3.5415C3.37587 7.70215 3.21703 7.76794 3.09991 7.88506C2.98279 8.00218 2.91699 8.16103 2.91699 8.32666V12.0737C2.917 12.1896 2.94924 12.3032 3.01012 12.4018C3.07101 12.5004 3.15812 12.5801 3.26172 12.632L5.41504 13.7087V17.3758C4.2577 16.571 3.3124 15.498 2.65988 14.2484C2.00737 12.9988 1.66704 11.6099 1.66797 10.2002C1.66615 8.90408 1.95376 7.62391 2.50981 6.45312H4.79053C4.95665 6.45312 5.11527 6.38693 5.23268 6.27077L7.73073 3.77272C7.78869 3.71462 7.83462 3.64566 7.86591 3.56979C7.8972 3.49392 7.91323 3.41263 7.91309 3.33057V1.81925C8.72382 1.57812 9.5653 1.45611 10.4111 1.45703C11.7851 1.45703 13.0853 1.77428 14.2419 2.33884C13.8233 2.68928 13.4869 3.12751 13.2566 3.62245C13.0263 4.1174 12.9077 4.65695 12.9092 5.20285C12.9092 6.20332 13.2989 7.14508 14.0071 7.85203C14.3766 8.22216 14.8196 8.51067 15.3076 8.69892C15.7955 8.88717 16.3175 8.97098 16.8399 8.94493C17.1096 9.95539 17.5955 12.5883 16.6762 16.2117C16.6678 16.2453 16.6624 16.2796 16.66 16.3142C15.8469 17.1472 14.8751 17.8089 13.8021 18.2602C12.729 18.7116 11.5765 18.9434 10.4124 18.9421L10.4111 18.9434Z" fill="white"/>
</svg>
